<?xml version="1.0" encoding="us-ascii" standalone="no"?><svg xmlns="http://www.w3.org/2000/svg" xmlns:xlink="http://www.w3.org/1999/xlink" contentStyleType="text/css" height="1589px" preserveAspectRatio="none" style="width:804px;height:1589px;background:#FFFFFF;" version="1.1" viewBox="0 0 804 1589" width="804px" zoomAndPan="magnify"><defs/><g><text fill="#000000" font-family="Courier" font-size="14" font-weight="bold" lengthAdjust="spacing" textLength="96" x="355" y="27.9951">DXP&#160;Sequence</text><rect fill="#FFFFFF" height="1530.8438" style="stroke:#181818;stroke-width:1.5;" width="780" x="18" y="52.2969"/><path d="M140,52.2969 L140,61.5938 L130,71.5938 L18,71.5938 " fill="none" style="stroke:#181818;stroke-width:1.5;"/><text fill="#000000" font-family="Courier" font-size="14" font-weight="bold" lengthAdjust="spacing" textLength="16" x="21" y="66.292">sd</text><text fill="#000000" font-family="Courier" font-size="14" lengthAdjust="spacing" textLength="88" x="45" y="66.292">DXPSequence</text><line style="stroke:#181818;stroke-width:0.5;stroke-dasharray:5.0,5.0;" x1="78" x2="78" y1="111.8906" y2="1536.5469"/><rect fill="#FFFFFF" height="1411.6563" style="stroke:#181818;stroke-width:1.0;" width="10" x="73" y="119.8906"/><line style="stroke:#181818;stroke-width:0.5;stroke-dasharray:5.0,5.0;" x1="436" x2="436" y1="111.8906" y2="1536.5469"/><rect fill="#FFFFFF" height="1202.7266" style="stroke:#181818;stroke-width:1.0;" width="10" x="431" y="302.8203"/><rect fill="#E3E3E3" height="30.2969" rx="2.5" ry="2.5" style="stroke:#181818;stroke-width:0.5;" width="86" x="35" y="80.5938"/><text fill="#000000" font-family="Courier" font-size="14" lengthAdjust="spacing" textLength="72" x="42" y="100.5889">ps:Sender</text><rect fill="#E3E3E3" height="30.2969" rx="2.5" ry="2.5" style="stroke:#181818;stroke-width:0.5;" width="110" x="381" y="80.5938"/><text fill="#000000" font-family="Courier" font-size="14" lengthAdjust="spacing" textLength="96" x="388" y="100.5889">ps:Recipient</text><rect fill="#E3E3E3" height="30.2969" rx="2.5" ry="2.5" style="stroke:#181818;stroke-width:0.5;" width="86" x="35" y="1536.5469"/><text fill="#000000" font-family="Courier" font-size="14" lengthAdjust="spacing" textLength="72" x="42" y="1556.542">ps:Sender</text><rect fill="#E3E3E3" height="30.2969" rx="2.5" ry="2.5" style="stroke:#181818;stroke-width:0.5;" width="110" x="381" y="1536.5469"/><text fill="#000000" font-family="Courier" font-size="14" lengthAdjust="spacing" textLength="96" x="388" y="1556.542">ps:Recipient</text><path d="M62,123.8906 L131,123.8906 L131,131.0234 L121,141.0234 L62,141.0234 L62,123.8906 " fill="#EEEEEE" style="stroke:#000000;stroke-width:1.5;"/><rect fill="none" height="56.2656" style="stroke:#000000;stroke-width:1.5;" width="443" x="62" y="123.8906"/><text fill="#000000" font-family="Courier" font-size="13" font-weight="bold" lengthAdjust="spacing" textLength="24" x="77" y="136.9575">opt</text><text fill="#000000" font-family="Courier" font-size="11" font-weight="bold" lengthAdjust="spacing" textLength="343" x="146" y="136.1011">[Recipient&#160;requests&#160;to&#160;retrieve&#160;a&#160;directory&#160;tree]</text><polygon fill="#181818" points="94,168.1563,84,172.1563,94,176.1563,90,172.1563" style="stroke:#181818;stroke-width:1.0;"/><line style="stroke:#181818;stroke-width:1.0;" x1="88" x2="435" y1="172.1563" y2="172.1563"/><text fill="#000000" font-family="Courier" font-size="13" font-weight="bold" lengthAdjust="spacing" textLength="8" x="100" y="167.0903">1</text><text fill="#000000" font-family="Courier" font-size="13" lengthAdjust="spacing" textLength="88" x="112" y="167.0903">PULL&#160;&lt;PATH&gt;</text><line style="stroke:#181818;stroke-width:1.0;" x1="83" x2="125" y1="215.2891" y2="215.2891"/><line style="stroke:#181818;stroke-width:1.0;" x1="125" x2="125" y1="215.2891" y2="228.2891"/><line style="stroke:#181818;stroke-width:1.0;" x1="84" x2="125" y1="228.2891" y2="228.2891"/><polygon fill="#181818" points="94,224.2891,84,228.2891,94,232.2891,90,228.2891" style="stroke:#181818;stroke-width:1.0;"/><text fill="#000000" font-family="Courier" font-size="13" font-weight="bold" lengthAdjust="spacing" textLength="8" x="90" y="210.2231">2</text><text fill="#000000" font-family="Courier" font-size="13" lengthAdjust="spacing" textLength="200" x="102" y="210.2231">Generate&#160;cookie&#160;and&#160;token</text><polygon fill="#181818" points="419,298.8203,429,302.8203,419,306.8203,423,302.8203" style="stroke:#181818;stroke-width:1.0;"/><line style="stroke:#181818;stroke-width:1.0;" x1="83" x2="425" y1="302.8203" y2="302.8203"/><text fill="#000000" font-family="Courier" font-size="13" font-weight="bold" lengthAdjust="spacing" textLength="8" x="90" y="275.0552">3</text><text fill="#000000" font-family="Courier" font-size="13" lengthAdjust="spacing" textLength="120" x="102" y="252.356">PUSH&#160;&lt;DIR_NAME&gt;</text><text fill="#000000" font-family="Courier" font-size="13" lengthAdjust="spacing" textLength="112" x="102" y="267.4888">Token:&#160;&lt;TOKEN&gt;</text><text fill="#000000" font-family="Courier" font-size="13" lengthAdjust="spacing" textLength="216" x="102" y="282.6216">[Request&#160;to&#160;transfer&#160;a&#160;tree</text><text fill="#000000" font-family="Courier" font-size="13" lengthAdjust="spacing" textLength="168" x="102" y="297.7544">rooted&#160;at&#160;&lt;DIR_NAME&gt;]</text><line style="stroke:#181818;stroke-width:1.0;" x1="441" x2="483" y1="331.9531" y2="331.9531"/><line style="stroke:#181818;stroke-width:1.0;" x1="483" x2="483" y1="331.9531" y2="344.9531"/><line style="stroke:#181818;stroke-width:1.0;" x1="442" x2="483" y1="344.9531" y2="344.9531"/><polygon fill="#181818" points="452,340.9531,442,344.9531,452,348.9531,448,344.9531" style="stroke:#181818;stroke-width:1.0;"/><text fill="#000000" font-family="Courier" font-size="13" font-weight="bold" lengthAdjust="spacing" textLength="8" x="448" y="326.8872">4</text><text fill="#000000" font-family="Courier" font-size="13" lengthAdjust="spacing" textLength="112" x="460" y="326.8872">Remember&#160;token</text><path d="M24,356.9531 L93,356.9531 L93,364.0859 L83,374.0859 L24,374.0859 L24,356.9531 " fill="#EEEEEE" style="stroke:#000000;stroke-width:1.5;"/><rect fill="none" height="1113.4609" style="stroke:#000000;stroke-width:1.5;" width="757" x="24" y="356.9531"/><text fill="#000000" font-family="Courier" font-size="13" font-weight="bold" lengthAdjust="spacing" textLength="24" x="39" y="370.02">alt</text><text fill="#000000" font-family="Courier" font-size="11" font-weight="bold" lengthAdjust="spacing" textLength="203" x="108" y="369.1636">[Recipient&#160;agrees&#160;to&#160;receive]</text><line style="stroke:#000000;stroke-width:1.0;stroke-dasharray:2.0,2.0;" x1="24" x2="781" y1="1391.2109" y2="1391.2109"/><text fill="#000000" font-family="Courier" font-size="11" font-weight="bold" lengthAdjust="spacing" textLength="217" x="29" y="1403.4214">[Recipient&#160;declines&#160;to&#160;receive]</text><polygon fill="#181818" points="94,431.4844,84,435.4844,94,439.4844,90,435.4844" style="stroke:#181818;stroke-width:1.0;"/><line style="stroke:#181818;stroke-width:1.0;stroke-dasharray:2.0,2.0;" x1="88" x2="430" y1="435.4844" y2="435.4844"/><text fill="#000000" font-family="Courier" font-size="13" font-weight="bold" lengthAdjust="spacing" textLength="8" x="100" y="415.2856">5</text><text fill="#000000" font-family="Courier" font-size="13" lengthAdjust="spacing" textLength="80" x="112" y="400.1528">1000&#160;READY</text><text fill="#000000" font-family="Courier" font-size="13" lengthAdjust="spacing" textLength="112" x="112" y="415.2856">Token:&#160;&lt;TOKEN&gt;</text><text fill="#000000" font-family="Courier" font-size="13" lengthAdjust="spacing" textLength="144" x="112" y="430.4185">[Ready&#160;to&#160;receive]</text><line style="stroke:#181818;stroke-width:1.0;" x1="83" x2="125" y1="464.6172" y2="464.6172"/><line style="stroke:#181818;stroke-width:1.0;" x1="125" x2="125" y1="464.6172" y2="477.6172"/><line style="stroke:#181818;stroke-width:1.0;" x1="84" x2="125" y1="477.6172" y2="477.6172"/><polygon fill="#181818" points="94,473.6172,84,477.6172,94,481.6172,90,477.6172" style="stroke:#181818;stroke-width:1.0;"/><text fill="#000000" font-family="Courier" font-size="13" font-weight="bold" lengthAdjust="spacing" textLength="8" x="90" y="459.5513">6</text><text fill="#000000" font-family="Courier" font-size="13" lengthAdjust="spacing" textLength="184" x="102" y="459.5513">Verify&#160;then&#160;renew&#160;token</text><polygon fill="#181818" points="419,548.1484,429,552.1484,419,556.1484,423,552.1484" style="stroke:#181818;stroke-width:1.0;"/><line style="stroke:#181818;stroke-width:1.0;" x1="83" x2="425" y1="552.1484" y2="552.1484"/><text fill="#000000" font-family="Courier" font-size="13" font-weight="bold" lengthAdjust="spacing" textLength="8" x="90" y="524.3833">7</text><text fill="#000000" font-family="Courier" font-size="13" lengthAdjust="spacing" textLength="32" x="102" y="501.6841">POLL</text><text fill="#000000" font-family="Courier" font-size="13" lengthAdjust="spacing" textLength="128" x="102" y="516.8169">Cookie:&#160;&lt;COOKIE&gt;</text><text fill="#000000" font-family="Courier" font-size="13" lengthAdjust="spacing" textLength="112" x="102" y="531.9497">Token:&#160;&lt;TOKEN&gt;</text><text fill="#000000" font-family="Courier" font-size="13" lengthAdjust="spacing" textLength="104" x="102" y="547.0825">[Send&#160;cookie]</text><line style="stroke:#181818;stroke-width:1.0;" x1="441" x2="483" y1="581.2813" y2="581.2813"/><line style="stroke:#181818;stroke-width:1.0;" x1="483" x2="483" y1="581.2813" y2="594.2813"/><line style="stroke:#181818;stroke-width:1.0;" x1="442" x2="483" y1="594.2813" y2="594.2813"/><polygon fill="#181818" points="452,590.2813,442,594.2813,452,598.2813,448,594.2813" style="stroke:#181818;stroke-width:1.0;"/><text fill="#000000" font-family="Courier" font-size="13" font-weight="bold" lengthAdjust="spacing" textLength="8" x="448" y="576.2153">8</text><text fill="#000000" font-family="Courier" font-size="13" lengthAdjust="spacing" textLength="256" x="460" y="576.2153">Remember&#160;cookie&#160;and&#160;update&#160;token</text><path d="M43,606.2813 L120,606.2813 L120,613.4141 L110,623.4141 L43,623.4141 L43,606.2813 " fill="#EEEEEE" style="stroke:#000000;stroke-width:1.5;"/><rect fill="none" height="759.9297" style="stroke:#000000;stroke-width:1.5;" width="713" x="43" y="606.2813"/><text fill="#000000" font-family="Courier" font-size="13" font-weight="bold" lengthAdjust="spacing" textLength="32" x="58" y="619.3481">loop</text><polygon fill="#181818" points="94,680.8125,84,684.8125,94,688.8125,90,684.8125" style="stroke:#181818;stroke-width:1.0;"/><line style="stroke:#181818;stroke-width:1.0;stroke-dasharray:2.0,2.0;" x1="88" x2="430" y1="684.8125" y2="684.8125"/><text fill="#000000" font-family="Courier" font-size="13" font-weight="bold" lengthAdjust="spacing" textLength="8" x="100" y="664.6138">9</text><text fill="#000000" font-family="Courier" font-size="13" lengthAdjust="spacing" textLength="104" x="112" y="649.481">PICK&#160;&lt;COOKIE&gt;</text><text fill="#000000" font-family="Courier" font-size="13" lengthAdjust="spacing" textLength="112" x="112" y="664.6138">Token:&#160;&lt;TOKEN&gt;</text><text fill="#000000" font-family="Courier" font-size="13" lengthAdjust="spacing" textLength="120" x="112" y="679.7466">[Get&#160;next&#160;node]</text><path d="M62,696.8125 L147,696.8125 L147,703.9453 L137,713.9453 L62,713.9453 L62,696.8125 " fill="#EEEEEE" style="stroke:#000000;stroke-width:1.5;"/><rect fill="none" height="97.1406" style="stroke:#000000;stroke-width:1.5;" width="390" x="62" y="696.8125"/><text fill="#000000" font-family="Courier" font-size="13" font-weight="bold" lengthAdjust="spacing" textLength="40" x="77" y="709.8794">break</text><text fill="#000000" font-family="Courier" font-size="11" font-weight="bold" lengthAdjust="spacing" textLength="168" x="162" y="709.0229">[Either&#160;cookie&#160;not&#160;found</text><text fill="#000000" font-family="Courier" font-size="11" font-weight="bold" lengthAdjust="spacing" textLength="147" x="162" y="721.8276">or&#160;cookie&#160;is&#160;INVALID]</text><line style="stroke:#181818;stroke-width:1.0;" x1="429" x2="419" y1="785.9531" y2="781.9531"/><line style="stroke:#181818;stroke-width:1.0;" x1="429" x2="419" y1="785.9531" y2="789.9531"/><line style="stroke:#181818;stroke-width:1.0;" x1="83" x2="430" y1="785.9531" y2="785.9531"/><text fill="#000000" font-family="Courier" font-size="13" font-weight="bold" lengthAdjust="spacing" textLength="16" x="90" y="765.7544">10</text><text fill="#000000" font-family="Courier" font-size="13" lengthAdjust="spacing" textLength="80" x="110" y="750.6216">74&#160;EBADMSG</text><text fill="#000000" font-family="Courier" font-size="13" lengthAdjust="spacing" textLength="160" x="110" y="765.7544">[Refuse&#160;PICK&#160;request</text><text fill="#000000" font-family="Courier" font-size="13" lengthAdjust="spacing" textLength="176" x="110" y="780.8872">then&#160;close&#160;connection]</text><line style="stroke:#181818;stroke-width:1.0;" x1="83" x2="125" y1="829.0859" y2="829.0859"/><line style="stroke:#181818;stroke-width:1.0;" x1="125" x2="125" y1="829.0859" y2="842.0859"/><line style="stroke:#181818;stroke-width:1.0;" x1="84" x2="125" y1="842.0859" y2="842.0859"/><polygon fill="#181818" points="94,838.0859,84,842.0859,94,846.0859,90,842.0859" style="stroke:#181818;stroke-width:1.0;"/><text fill="#000000" font-family="Courier" font-size="13" font-weight="bold" lengthAdjust="spacing" textLength="16" x="90" y="824.02">11</text><text fill="#000000" font-family="Courier" font-size="13" lengthAdjust="spacing" textLength="96" x="110" y="824.02">Verify&#160;token</text><line style="stroke:#181818;stroke-width:1.0;" x1="83" x2="125" y1="871.2188" y2="871.2188"/><line style="stroke:#181818;stroke-width:1.0;" x1="125" x2="125" y1="871.2188" y2="884.2188"/><line style="stroke:#181818;stroke-width:1.0;" x1="84" x2="125" y1="884.2188" y2="884.2188"/><polygon fill="#181818" points="94,880.2188,84,884.2188,94,888.2188,90,884.2188" style="stroke:#181818;stroke-width:1.0;"/><text fill="#000000" font-family="Courier" font-size="13" font-weight="bold" lengthAdjust="spacing" textLength="16" x="90" y="866.1528">12</text><text fill="#000000" font-family="Courier" font-size="13" lengthAdjust="spacing" textLength="184" x="110" y="866.1528">Accumulate&#160;Eng&#160;checksum</text><line style="stroke:#181818;stroke-width:1.0;" x1="83" x2="125" y1="913.3516" y2="913.3516"/><line style="stroke:#181818;stroke-width:1.0;" x1="125" x2="125" y1="913.3516" y2="926.3516"/><line style="stroke:#181818;stroke-width:1.0;" x1="84" x2="125" y1="926.3516" y2="926.3516"/><polygon fill="#181818" points="94,922.3516,84,926.3516,94,930.3516,90,926.3516" style="stroke:#181818;stroke-width:1.0;"/><text fill="#000000" font-family="Courier" font-size="13" font-weight="bold" lengthAdjust="spacing" textLength="16" x="90" y="908.2856">13</text><text fill="#000000" font-family="Courier" font-size="13" lengthAdjust="spacing" textLength="152" x="110" y="908.2856">Determine&#160;next&#160;node</text><path d="M62,938.3516 L147,938.3516 L147,945.4844 L137,955.4844 L62,955.4844 L62,938.3516 " fill="#EEEEEE" style="stroke:#000000;stroke-width:1.5;"/><rect fill="none" height="228.0625" style="stroke:#000000;stroke-width:1.5;" width="669" x="62" y="938.3516"/><text fill="#000000" font-family="Courier" font-size="13" font-weight="bold" lengthAdjust="spacing" textLength="40" x="77" y="951.4185">break</text><text fill="#000000" font-family="Courier" font-size="11" font-weight="bold" lengthAdjust="spacing" textLength="182" x="162" y="950.562">[Next&#160;node&#160;does&#160;not&#160;exist]</text><line style="stroke:#181818;stroke-width:1.0;" x1="429" x2="419" y1="1032.0156" y2="1028.0156"/><line style="stroke:#181818;stroke-width:1.0;" x1="429" x2="419" y1="1032.0156" y2="1036.0156"/><line style="stroke:#181818;stroke-width:1.0;" x1="83" x2="430" y1="1032.0156" y2="1032.0156"/><text fill="#000000" font-family="Courier" font-size="13" font-weight="bold" lengthAdjust="spacing" textLength="16" x="90" y="1004.2505">14</text><text fill="#000000" font-family="Courier" font-size="13" lengthAdjust="spacing" textLength="72" x="110" y="981.5513">2000&#160;DONE</text><text fill="#000000" font-family="Courier" font-size="13" lengthAdjust="spacing" textLength="176" x="110" y="996.6841">Digest:&#160;&lt;CHANG_DIGEST&gt;</text><text fill="#000000" font-family="Courier" font-size="13" lengthAdjust="spacing" textLength="240" x="110" y="1011.8169">[Send&#160;node&#160;and&#160;Chang&#160;checksum,</text><text fill="#000000" font-family="Courier" font-size="13" lengthAdjust="spacing" textLength="176" x="110" y="1026.9497">then&#160;close&#160;connection]</text><line style="stroke:#181818;stroke-width:1.0;" x1="441" x2="483" y1="1061.1484" y2="1061.1484"/><line style="stroke:#181818;stroke-width:1.0;" x1="483" x2="483" y1="1061.1484" y2="1074.1484"/><line style="stroke:#181818;stroke-width:1.0;" x1="442" x2="483" y1="1074.1484" y2="1074.1484"/><polygon fill="#181818" points="452,1070.1484,442,1074.1484,452,1078.1484,448,1074.1484" style="stroke:#181818;stroke-width:1.0;"/><text fill="#000000" font-family="Courier" font-size="13" font-weight="bold" lengthAdjust="spacing" textLength="16" x="448" y="1056.0825">15</text><text fill="#000000" font-family="Courier" font-size="13" lengthAdjust="spacing" textLength="184" x="468" y="1056.0825">Forget&#160;cookie&#160;and&#160;token</text><line style="stroke:#181818;stroke-width:1.0;" x1="441" x2="483" y1="1103.2813" y2="1103.2813"/><line style="stroke:#181818;stroke-width:1.0;" x1="483" x2="483" y1="1103.2813" y2="1116.2813"/><line style="stroke:#181818;stroke-width:1.0;" x1="442" x2="483" y1="1116.2813" y2="1116.2813"/><polygon fill="#181818" points="452,1112.2813,442,1116.2813,452,1120.2813,448,1116.2813" style="stroke:#181818;stroke-width:1.0;"/><text fill="#000000" font-family="Courier" font-size="13" font-weight="bold" lengthAdjust="spacing" textLength="16" x="448" y="1098.2153">16</text><text fill="#000000" font-family="Courier" font-size="13" lengthAdjust="spacing" textLength="200" x="468" y="1098.2153">Accumulate&#160;Chang&#160;checksum</text><line style="stroke:#181818;stroke-width:1.0;" x1="441" x2="483" y1="1145.4141" y2="1145.4141"/><line style="stroke:#181818;stroke-width:1.0;" x1="483" x2="483" y1="1145.4141" y2="1158.4141"/><line style="stroke:#181818;stroke-width:1.0;" x1="442" x2="483" y1="1158.4141" y2="1158.4141"/><polygon fill="#181818" points="452,1154.4141,442,1158.4141,452,1162.4141,448,1158.4141" style="stroke:#181818;stroke-width:1.0;"/><text fill="#000000" font-family="Courier" font-size="13" font-weight="bold" lengthAdjust="spacing" textLength="16" x="448" y="1140.3481">17</text><text fill="#000000" font-family="Courier" font-size="13" lengthAdjust="spacing" textLength="240" x="468" y="1140.3481">Compare&#160;Eng&#160;and&#160;Chang&#160;checksum</text><line style="stroke:#181818;stroke-width:1.0;" x1="83" x2="125" y1="1201.5469" y2="1201.5469"/><line style="stroke:#181818;stroke-width:1.0;" x1="125" x2="125" y1="1201.5469" y2="1214.5469"/><line style="stroke:#181818;stroke-width:1.0;" x1="84" x2="125" y1="1214.5469" y2="1214.5469"/><polygon fill="#181818" points="94,1210.5469,84,1214.5469,94,1218.5469,90,1214.5469" style="stroke:#181818;stroke-width:1.0;"/><text fill="#000000" font-family="Courier" font-size="13" font-weight="bold" lengthAdjust="spacing" textLength="16" x="90" y="1196.481">18</text><text fill="#000000" font-family="Courier" font-size="13" lengthAdjust="spacing" textLength="88" x="110" y="1196.481">Renew&#160;token</text><polygon fill="#181818" points="419,1269.9453,429,1273.9453,419,1277.9453,423,1273.9453" style="stroke:#181818;stroke-width:1.0;"/><line style="stroke:#181818;stroke-width:1.0;" x1="83" x2="425" y1="1273.9453" y2="1273.9453"/><text fill="#000000" font-family="Courier" font-size="13" font-weight="bold" lengthAdjust="spacing" textLength="16" x="90" y="1253.7466">19</text><text fill="#000000" font-family="Courier" font-size="13" lengthAdjust="spacing" textLength="72" x="110" y="1238.6138">2001&#160;MORE</text><text fill="#000000" font-family="Courier" font-size="13" lengthAdjust="spacing" textLength="112" x="110" y="1253.7466">Token:&#160;&lt;TOKEN&gt;</text><text fill="#000000" font-family="Courier" font-size="13" lengthAdjust="spacing" textLength="296" x="110" y="1268.8794">[Send&#160;node&#160;and&#160;tell&#160;next&#160;node&#160;exists]</text><line style="stroke:#181818;stroke-width:1.0;" x1="441" x2="483" y1="1303.0781" y2="1303.0781"/><line style="stroke:#181818;stroke-width:1.0;" x1="483" x2="483" y1="1303.0781" y2="1316.0781"/><line style="stroke:#181818;stroke-width:1.0;" x1="442" x2="483" y1="1316.0781" y2="1316.0781"/><polygon fill="#181818" points="452,1312.0781,442,1316.0781,452,1320.0781,448,1316.0781" style="stroke:#181818;stroke-width:1.0;"/><text fill="#000000" font-family="Courier" font-size="13" font-weight="bold" lengthAdjust="spacing" textLength="16" x="448" y="1298.0122">20</text><text fill="#000000" font-family="Courier" font-size="13" lengthAdjust="spacing" textLength="96" x="468" y="1298.0122">Update&#160;token</text><line style="stroke:#181818;stroke-width:1.0;" x1="441" x2="483" y1="1345.2109" y2="1345.2109"/><line style="stroke:#181818;stroke-width:1.0;" x1="483" x2="483" y1="1345.2109" y2="1358.2109"/><line style="stroke:#181818;stroke-width:1.0;" x1="442" x2="483" y1="1358.2109" y2="1358.2109"/><polygon fill="#181818" points="452,1354.2109,442,1358.2109,452,1362.2109,448,1358.2109" style="stroke:#181818;stroke-width:1.0;"/><text fill="#000000" font-family="Courier" font-size="13" font-weight="bold" lengthAdjust="spacing" textLength="16" x="448" y="1340.145">21</text><text fill="#000000" font-family="Courier" font-size="13" lengthAdjust="spacing" textLength="200" x="468" y="1340.145">Accumulate&#160;Chang&#160;checksum</text><polygon fill="#181818" points="94,1458.4141,84,1462.4141,94,1466.4141,90,1462.4141" style="stroke:#181818;stroke-width:1.0;"/><line style="stroke:#181818;stroke-width:1.0;stroke-dasharray:2.0,2.0;" x1="88" x2="430" y1="1462.4141" y2="1462.4141"/><text fill="#000000" font-family="Courier" font-size="13" font-weight="bold" lengthAdjust="spacing" textLength="16" x="100" y="1442.2153">22</text><text fill="#000000" font-family="Courier" font-size="13" lengthAdjust="spacing" textLength="104" x="120" y="1427.0825">1001&#160;DECLINED</text><text fill="#000000" font-family="Courier" font-size="13" lengthAdjust="spacing" textLength="112" x="120" y="1442.2153">Token:&#160;&lt;TOKEN&gt;</text><text fill="#000000" font-family="Courier" font-size="13" lengthAdjust="spacing" textLength="304" x="120" y="1457.3481">[Refuse&#160;request&#160;then&#160;close&#160;connection]</text><line style="stroke:#181818;stroke-width:1.0;" x1="441" x2="483" y1="1505.5469" y2="1505.5469"/><line style="stroke:#181818;stroke-width:1.0;" x1="483" x2="483" y1="1505.5469" y2="1518.5469"/><line style="stroke:#181818;stroke-width:1.0;" x1="436" x2="483" y1="1518.5469" y2="1518.5469"/><polygon fill="#181818" points="446,1514.5469,436,1518.5469,446,1522.5469,442,1518.5469" style="stroke:#181818;stroke-width:1.0;"/><text fill="#000000" font-family="Courier" font-size="13" font-weight="bold" lengthAdjust="spacing" textLength="16" x="448" y="1500.481">23</text><text fill="#000000" font-family="Courier" font-size="13" lengthAdjust="spacing" textLength="72" x="468" y="1500.481">Terminate</text><!--SRC=[bLNRRfj047tdAxPvgMIrabrLgXH5aIXG1yN15dQYLdKKRM1ihmopxhAaIR- -iu1XdPYaVU4sipFddBdmRgVuEkTCW_p3j2h1ARO2TrpndEKIPR9HCeVdbXHMlCpqDuawucJsPAa4ACVHGcV0_EypDeTV9M02Jiu5hfJn6WoAT30mrjReK3mj4h7ZgDd9hZYT0wQWJXWlMFtumYC6UX60kd9gtno7brfYcT_J6PveyS0rx6CuxvdSQJPqpBKzmfI1KUY2QKdFcYWy0ECi5GeIBTKJqGR2s1tuUDv4F6Mpwyc4dStSnSLv5vviZbDxsBvZG506JYBbLb0AJ2db5j3oRPEOqFCBTkQ7yLtaNWNdIrmOtrDsjfXU1X6z_unhu0QtLXoB5SNW5TebAYarf8nhAyIjqqbYANP0p08GGmv6nmOaqUEPeMUktHc-fdoDTWc8XqEbBFgZuN38ui3rVnobmjCdAyZj4VrkG8aLEMq0oGtXzwlgJIUJ9NgLqfJ8cqulmwCYcjDDHMxVbi8gNRbBZP2jE9cKErB7tFeac8NUvMjOng0PmYDTP4feAEYz0hwbgFKz44I-1O5IivKiCLsYR3-AWeNHZJi9VQi53xXy-So2hwv_DHzNkg_A0cfWpHmiiL8uoMHXMXMHfa18F83Jq-7x2Zqhozxi9acPbvbHBS0rIpQGR8ioF-BfWmQL2uHEZYxzg54ZsfjOAga3ZHpmA0hTH_oJQK1_6WLBzCMQc9g-k72ZyPqVZeFveks6AgOfiRVX5iuFlShqjSqtgTPKqXVptkTl2NIOklU49tFQZBMUBn7RclMKB7vha4Yr4RkQna7VxBHgQSYohbvrBOf-SQxj-Vb_HRg9gvZjbnDaXRNSw1ULPDH6_xYVHimFl4aO1VxH5LMDYjeltRuXQN0OK7si5bLp4od7IU78IhO-rkZ-0W00]--></g></svg>