<?xml version="1.0" encoding="us-ascii" standalone="no"?><svg xmlns="http://www.w3.org/2000/svg" xmlns:xlink="http://www.w3.org/1999/xlink" contentStyleType="text/css" height="1221px" preserveAspectRatio="none" style="width:1124px;height:1221px;background:#FFFFFF;" version="1.1" viewBox="0 0 1124 1221" width="1124px" zoomAndPan="magnify"><defs/><g><text fill="#000000" font-family="Courier" font-size="14" font-weight="bold" lengthAdjust="spacing" textLength="112" x="509.5" y="27.9951">DXP&#160;Connection</text><rect fill="#FFFFFF" height="1163.1797" style="stroke:#181818;stroke-width:1.5;" width="1095" x="23" y="52.2969"/><path d="M161,52.2969 L161,61.5938 L151,71.5938 L23,71.5938 " fill="none" style="stroke:#181818;stroke-width:1.5;"/><text fill="#000000" font-family="Courier" font-size="14" font-weight="bold" lengthAdjust="spacing" textLength="16" x="26" y="66.292">sd</text><text fill="#000000" font-family="Courier" font-size="14" lengthAdjust="spacing" textLength="104" x="50" y="66.292">DXPConnection</text><line style="stroke:#181818;stroke-width:0.5;stroke-dasharray:5.0,5.0;" x1="92" x2="92" y1="111.8906" y2="1168.8828"/><rect fill="#FFFFFF" height="930.4609" style="stroke:#181818;stroke-width:1.0;" width="10" x="87" y="238.4219"/><line style="stroke:#181818;stroke-width:0.5;stroke-dasharray:5.0,5.0;" x1="642" x2="642" y1="111.8906" y2="1168.8828"/><rect fill="#FFFFFF" height="1009.8594" style="stroke:#181818;stroke-width:1.0;" width="10" x="637" y="141.0234"/><line style="stroke:#181818;stroke-width:0.5;stroke-dasharray:5.0,5.0;" x1="1009" x2="1009" y1="111.8906" y2="1168.8828"/><rect fill="#FFFFFF" height="29.1328" style="stroke:#181818;stroke-width:1.0;" width="10" x="1004" y="170.1563"/><rect fill="#FFFFFF" height="29.1328" style="stroke:#181818;stroke-width:1.0;" width="10" x="1004" y="468.6172"/><rect fill="#E3E3E3" height="30.2969" rx="2.5" ry="2.5" style="stroke:#181818;stroke-width:0.5;" width="94" x="45" y="80.5938"/><text fill="#000000" font-family="Courier" font-size="14" lengthAdjust="spacing" textLength="80" x="52" y="100.5889">:Recipient</text><rect fill="#E3E3E3" height="30.2969" rx="2.5" ry="2.5" style="stroke:#181818;stroke-width:0.5;" width="70" x="607" y="80.5938"/><text fill="#000000" font-family="Courier" font-size="14" lengthAdjust="spacing" textLength="56" x="614" y="100.5889">:Sender</text><rect fill="#E3E3E3" height="30.2969" rx="2.5" ry="2.5" style="stroke:#181818;stroke-width:0.5;" width="102" x="958" y="80.5938"/><text fill="#000000" font-family="Courier" font-size="14" lengthAdjust="spacing" textLength="88" x="965" y="100.5889">:Filesystem</text><rect fill="#E3E3E3" height="30.2969" rx="2.5" ry="2.5" style="stroke:#181818;stroke-width:0.5;" width="94" x="45" y="1168.8828"/><text fill="#000000" font-family="Courier" font-size="14" lengthAdjust="spacing" textLength="80" x="52" y="1188.8779">:Recipient</text><rect fill="#E3E3E3" height="30.2969" rx="2.5" ry="2.5" style="stroke:#181818;stroke-width:0.5;" width="70" x="607" y="1168.8828"/><text fill="#000000" font-family="Courier" font-size="14" lengthAdjust="spacing" textLength="56" x="614" y="1188.8779">:Sender</text><rect fill="#E3E3E3" height="30.2969" rx="2.5" ry="2.5" style="stroke:#181818;stroke-width:0.5;" width="102" x="958" y="1168.8828"/><text fill="#000000" font-family="Courier" font-size="14" lengthAdjust="spacing" textLength="88" x="965" y="1188.8779">:Filesystem</text><polygon fill="#181818" points="625,137.0234,635,141.0234,625,145.0234,629,141.0234" style="stroke:#181818;stroke-width:1.0;"/><line style="stroke:#181818;stroke-width:1.0;" x1="92" x2="631" y1="141.0234" y2="141.0234"/><text fill="#000000" font-family="Courier" font-size="13" font-weight="bold" lengthAdjust="spacing" textLength="8" x="99" y="135.9575">1</text><text fill="#000000" font-family="Courier" font-size="13" lengthAdjust="spacing" textLength="128" x="111" y="135.9575">[PLUCK&#160;"&lt;PATH&gt;"]</text><polygon fill="#181818" points="992,166.1563,1002,170.1563,992,174.1563,996,170.1563" style="stroke:#181818;stroke-width:1.0;"/><line style="stroke:#181818;stroke-width:1.0;" x1="647" x2="998" y1="170.1563" y2="170.1563"/><text fill="#000000" font-family="Courier" font-size="13" font-weight="bold" lengthAdjust="spacing" textLength="8" x="654" y="165.0903">2</text><text fill="#000000" font-family="Courier" font-size="13" lengthAdjust="spacing" textLength="208" x="666" y="165.0903">Check&#160;"&lt;PATH&gt;"&#160;permissions</text><polygon fill="#181818" points="658,195.2891,648,199.2891,658,203.2891,654,199.2891" style="stroke:#181818;stroke-width:1.0;"/><line style="stroke:#181818;stroke-width:1.0;stroke-dasharray:2.0,2.0;" x1="652" x2="1003" y1="199.2891" y2="199.2891"/><text fill="#000000" font-family="Courier" font-size="13" font-weight="bold" lengthAdjust="spacing" textLength="8" x="664" y="194.2231">3</text><text fill="#000000" font-family="Courier" font-size="13" lengthAdjust="spacing" textLength="160" x="676" y="194.2231">"&lt;PATH&gt;"&#160;permissions</text><path d="M29,211.2891 L98,211.2891 L98,218.4219 L88,228.4219 L29,228.4219 L29,211.2891 " fill="#EEEEEE" style="stroke:#000000;stroke-width:1.5;"/><rect fill="none" height="904.4609" style="stroke:#000000;stroke-width:1.5;" width="1072" x="29" y="211.2891"/><text fill="#000000" font-family="Courier" font-size="13" font-weight="bold" lengthAdjust="spacing" textLength="24" x="44" y="224.356">alt</text><text fill="#000000" font-family="Courier" font-size="11" font-weight="bold" lengthAdjust="spacing" textLength="140" x="113" y="223.4995">["&lt;PATH&gt;"&#160;permitted]</text><line style="stroke:#000000;stroke-width:1.0;stroke-dasharray:2.0,2.0;" x1="29" x2="1101" y1="1051.6797" y2="1051.6797"/><text fill="#000000" font-family="Courier" font-size="11" font-weight="bold" lengthAdjust="spacing" textLength="168" x="34" y="1063.8901">["&lt;PATH&gt;"&#160;not&#160;permitted]</text><polygon fill="#181818" points="108,285.8203,98,289.8203,108,293.8203,104,289.8203" style="stroke:#181818;stroke-width:1.0;"/><line style="stroke:#181818;stroke-width:1.0;stroke-dasharray:2.0,2.0;" x1="102" x2="636" y1="289.8203" y2="289.8203"/><text fill="#000000" font-family="Courier" font-size="13" font-weight="bold" lengthAdjust="spacing" textLength="8" x="114" y="269.6216">4</text><text fill="#000000" font-family="Courier" font-size="13" lengthAdjust="spacing" textLength="40" x="126" y="254.4888">[0&#160;OK</text><text fill="#000000" font-family="Courier" font-size="13" lengthAdjust="spacing" textLength="152" x="126" y="269.6216">Job-ID:&#160;"&lt;JOB_ID&gt;"]</text><text fill="#000000" font-family="Courier" font-size="13" lengthAdjust="spacing" textLength="144" x="126" y="284.7544">Ready&#160;for&#160;exchange</text><path d="M57,301.8203 L134,301.8203 L134,308.9531 L124,318.9531 L57,318.9531 L57,301.8203 " fill="#EEEEEE" style="stroke:#000000;stroke-width:1.5;"/><rect fill="none" height="724.8594" style="stroke:#000000;stroke-width:1.5;" width="1019" x="57" y="301.8203"/><text fill="#000000" font-family="Courier" font-size="13" font-weight="bold" lengthAdjust="spacing" textLength="32" x="72" y="314.8872">loop</text><text fill="#000000" font-family="Courier" font-size="11" font-weight="bold" lengthAdjust="spacing" textLength="91" x="149" y="314.0308">[TIMEOUT&#160;&gt;&#160;0]</text><polygon fill="#181818" points="625,361.2188,635,365.2188,625,369.2188,629,365.2188" style="stroke:#181818;stroke-width:1.0;"/><line style="stroke:#181818;stroke-width:1.0;" x1="97" x2="631" y1="365.2188" y2="365.2188"/><text fill="#000000" font-family="Courier" font-size="13" font-weight="bold" lengthAdjust="spacing" textLength="8" x="104" y="352.5864">5</text><text fill="#000000" font-family="Courier" font-size="13" lengthAdjust="spacing" textLength="136" x="116" y="345.02">[PICK&#160;"&lt;JOB_ID&gt;"]</text><text fill="#000000" font-family="Courier" font-size="13" lengthAdjust="spacing" textLength="224" x="116" y="360.1528">Get&#160;next&#160;node&#160;for&#160;"&lt;JOB_ID&gt;"</text><path d="M76,377.2188 L161,377.2188 L161,384.3516 L151,394.3516 L76,394.3516 L76,377.2188 " fill="#EEEEEE" style="stroke:#000000;stroke-width:1.5;"/><rect fill="none" height="56.2656" style="stroke:#000000;stroke-width:1.5;" width="582" x="76" y="377.2188"/><text fill="#000000" font-family="Courier" font-size="13" font-weight="bold" lengthAdjust="spacing" textLength="40" x="91" y="390.2856">break</text><text fill="#000000" font-family="Courier" font-size="11" font-weight="bold" lengthAdjust="spacing" textLength="308" x="176" y="389.4292">[Next&#160;node&#160;does&#160;not&#160;exist&#160;(invalid&#160;request)]</text><polygon fill="#181818" points="108,421.4844,98,425.4844,108,429.4844,104,425.4844" style="stroke:#181818;stroke-width:1.0;"/><line style="stroke:#181818;stroke-width:1.0;stroke-dasharray:2.0,2.0;" x1="102" x2="636" y1="425.4844" y2="425.4844"/><text fill="#000000" font-family="Courier" font-size="13" font-weight="bold" lengthAdjust="spacing" textLength="8" x="114" y="420.4185">6</text><text fill="#000000" font-family="Courier" font-size="13" lengthAdjust="spacing" textLength="96" x="126" y="420.4185">[74&#160;EBADMSG]</text><polygon fill="#181818" points="992,464.6172,1002,468.6172,992,472.6172,996,468.6172" style="stroke:#181818;stroke-width:1.0;"/><line style="stroke:#181818;stroke-width:1.0;" x1="647" x2="998" y1="468.6172" y2="468.6172"/><text fill="#000000" font-family="Courier" font-size="13" font-weight="bold" lengthAdjust="spacing" textLength="8" x="654" y="463.5513">7</text><text fill="#000000" font-family="Courier" font-size="13" lengthAdjust="spacing" textLength="176" x="666" y="463.5513">Request&#160;read&#160;next&#160;node</text><polygon fill="#181818" points="658,493.75,648,497.75,658,501.75,654,497.75" style="stroke:#181818;stroke-width:1.0;"/><line style="stroke:#181818;stroke-width:1.0;stroke-dasharray:2.0,2.0;" x1="652" x2="1003" y1="497.75" y2="497.75"/><text fill="#000000" font-family="Courier" font-size="13" font-weight="bold" lengthAdjust="spacing" textLength="8" x="664" y="492.6841">8</text><text fill="#000000" font-family="Courier" font-size="13" lengthAdjust="spacing" textLength="168" x="676" y="492.6841">Return&#160;requested&#160;node</text><line style="stroke:#181818;stroke-width:1.0;" x1="647" x2="689" y1="526.8828" y2="526.8828"/><line style="stroke:#181818;stroke-width:1.0;" x1="689" x2="689" y1="526.8828" y2="539.8828"/><line style="stroke:#181818;stroke-width:1.0;" x1="648" x2="689" y1="539.8828" y2="539.8828"/><polygon fill="#181818" points="658,535.8828,648,539.8828,658,543.8828,654,539.8828" style="stroke:#181818;stroke-width:1.0;"/><text fill="#000000" font-family="Courier" font-size="13" font-weight="bold" lengthAdjust="spacing" textLength="8" x="654" y="521.8169">9</text><text fill="#000000" font-family="Courier" font-size="13" lengthAdjust="spacing" textLength="296" x="666" y="521.8169">Advance&#160;TIMEOUT&#160;with&#160;predefined&#160;value</text><line style="stroke:#181818;stroke-width:1.0;" x1="647" x2="689" y1="569.0156" y2="569.0156"/><line style="stroke:#181818;stroke-width:1.0;" x1="689" x2="689" y1="569.0156" y2="582.0156"/><line style="stroke:#181818;stroke-width:1.0;" x1="648" x2="689" y1="582.0156" y2="582.0156"/><polygon fill="#181818" points="658,578.0156,648,582.0156,658,586.0156,654,582.0156" style="stroke:#181818;stroke-width:1.0;"/><text fill="#000000" font-family="Courier" font-size="13" font-weight="bold" lengthAdjust="spacing" textLength="16" x="654" y="563.9497">10</text><text fill="#000000" font-family="Courier" font-size="13" lengthAdjust="spacing" textLength="184" x="674" y="563.9497">Accumulate&#160;Eng&#160;checksum</text><line style="stroke:#181818;stroke-width:1.0;" x1="647" x2="689" y1="611.1484" y2="611.1484"/><line style="stroke:#181818;stroke-width:1.0;" x1="689" x2="689" y1="611.1484" y2="624.1484"/><line style="stroke:#181818;stroke-width:1.0;" x1="648" x2="689" y1="624.1484" y2="624.1484"/><polygon fill="#181818" points="658,620.1484,648,624.1484,658,628.1484,654,624.1484" style="stroke:#181818;stroke-width:1.0;"/><text fill="#000000" font-family="Courier" font-size="13" font-weight="bold" lengthAdjust="spacing" textLength="16" x="654" y="606.0825">11</text><text fill="#000000" font-family="Courier" font-size="13" lengthAdjust="spacing" textLength="152" x="674" y="606.0825">Determine&#160;next&#160;node</text><path d="M76,636.1484 L145,636.1484 L145,643.2813 L135,653.2813 L76,653.2813 L76,636.1484 " fill="#EEEEEE" style="stroke:#000000;stroke-width:1.5;"/><rect fill="none" height="376.5313" style="stroke:#000000;stroke-width:1.5;" width="949" x="76" y="636.1484"/><text fill="#000000" font-family="Courier" font-size="13" font-weight="bold" lengthAdjust="spacing" textLength="24" x="91" y="649.2153">alt</text><text fill="#000000" font-family="Courier" font-size="11" font-weight="bold" lengthAdjust="spacing" textLength="126" x="160" y="648.3589">[Next&#160;node&#160;exists]</text><line style="stroke:#000000;stroke-width:1.0;stroke-dasharray:2.0,2.0;" x1="76" x2="1025" y1="760.6797" y2="760.6797"/><text fill="#000000" font-family="Courier" font-size="11" font-weight="bold" lengthAdjust="spacing" textLength="105" x="81" y="772.8901">[No&#160;more&#160;nodes]</text><polygon fill="#181818" points="108,695.5469,98,699.5469,108,703.5469,104,699.5469" style="stroke:#181818;stroke-width:1.0;"/><line style="stroke:#181818;stroke-width:1.0;stroke-dasharray:2.0,2.0;" x1="102" x2="636" y1="699.5469" y2="699.5469"/><text fill="#000000" font-family="Courier" font-size="13" font-weight="bold" lengthAdjust="spacing" textLength="16" x="114" y="686.9146">12</text><text fill="#000000" font-family="Courier" font-size="13" lengthAdjust="spacing" textLength="88" x="134" y="679.3481">[1001&#160;MORE]</text><text fill="#000000" font-family="Courier" font-size="13" lengthAdjust="spacing" textLength="416" x="134" y="694.481">Send&#160;node&#160;and&#160;tell&#160;"there&#160;is&#160;at&#160;least&#160;one&#160;more&#160;node"</text><line style="stroke:#181818;stroke-width:1.0;" x1="97" x2="139" y1="728.6797" y2="728.6797"/><line style="stroke:#181818;stroke-width:1.0;" x1="139" x2="139" y1="728.6797" y2="741.6797"/><line style="stroke:#181818;stroke-width:1.0;" x1="98" x2="139" y1="741.6797" y2="741.6797"/><polygon fill="#181818" points="108,737.6797,98,741.6797,108,745.6797,104,741.6797" style="stroke:#181818;stroke-width:1.0;"/><text fill="#000000" font-family="Courier" font-size="13" font-weight="bold" lengthAdjust="spacing" textLength="16" x="104" y="723.6138">13</text><text fill="#000000" font-family="Courier" font-size="13" lengthAdjust="spacing" textLength="200" x="124" y="723.6138">Accumulate&#160;Chang&#160;checksum</text><polygon fill="#181818" points="108,827.8828,98,831.8828,108,835.8828,104,831.8828" style="stroke:#181818;stroke-width:1.0;"/><line style="stroke:#181818;stroke-width:1.0;stroke-dasharray:2.0,2.0;" x1="102" x2="636" y1="831.8828" y2="831.8828"/><text fill="#000000" font-family="Courier" font-size="13" font-weight="bold" lengthAdjust="spacing" textLength="16" x="114" y="811.6841">14</text><text fill="#000000" font-family="Courier" font-size="13" lengthAdjust="spacing" textLength="88" x="134" y="796.5513">[1000&#160;DONE]</text><text fill="#000000" font-family="Courier" font-size="13" lengthAdjust="spacing" textLength="152" x="134" y="811.6841">Send&#160;node&#160;contents,</text><text fill="#000000" font-family="Courier" font-size="13" lengthAdjust="spacing" textLength="496" x="134" y="826.8169">the&#160;respond&#160;status&#160;1000&#160;DONE&#160;signals&#160;"there&#160;are&#160;no&#160;more&#160;nodes"</text><line style="stroke:#181818;stroke-width:1.0;" x1="97" x2="139" y1="861.0156" y2="861.0156"/><line style="stroke:#181818;stroke-width:1.0;" x1="139" x2="139" y1="861.0156" y2="874.0156"/><line style="stroke:#181818;stroke-width:1.0;" x1="98" x2="139" y1="874.0156" y2="874.0156"/><polygon fill="#181818" points="108,870.0156,98,874.0156,108,878.0156,104,874.0156" style="stroke:#181818;stroke-width:1.0;"/><text fill="#000000" font-family="Courier" font-size="13" font-weight="bold" lengthAdjust="spacing" textLength="16" x="104" y="855.9497">15</text><text fill="#000000" font-family="Courier" font-size="13" lengthAdjust="spacing" textLength="200" x="124" y="855.9497">Accumulate&#160;Chang&#160;checksum</text><polygon fill="#181818" points="625,914.2813,635,918.2813,625,922.2813,629,918.2813" style="stroke:#181818;stroke-width:1.0;"/><line style="stroke:#181818;stroke-width:1.0;" x1="97" x2="631" y1="918.2813" y2="918.2813"/><text fill="#000000" font-family="Courier" font-size="13" font-weight="bold" lengthAdjust="spacing" textLength="16" x="104" y="905.6489">16</text><text fill="#000000" font-family="Courier" font-size="13" lengthAdjust="spacing" textLength="128" x="124" y="898.0825">[PACK&#160;"&lt;JOB_ID&gt;"</text><text fill="#000000" font-family="Courier" font-size="13" lengthAdjust="spacing" textLength="352" x="124" y="913.2153">DIGEST:&#160;"CHANG_DIGEST"]&#160;Send&#160;Change&#160;checksum</text><line style="stroke:#181818;stroke-width:1.0;" x1="647" x2="689" y1="947.4141" y2="947.4141"/><line style="stroke:#181818;stroke-width:1.0;" x1="689" x2="689" y1="947.4141" y2="960.4141"/><line style="stroke:#181818;stroke-width:1.0;" x1="648" x2="689" y1="960.4141" y2="960.4141"/><polygon fill="#181818" points="658,956.4141,648,960.4141,658,964.4141,654,960.4141" style="stroke:#181818;stroke-width:1.0;"/><text fill="#000000" font-family="Courier" font-size="13" font-weight="bold" lengthAdjust="spacing" textLength="16" x="654" y="942.3481">17</text><text fill="#000000" font-family="Courier" font-size="13" lengthAdjust="spacing" textLength="328" x="674" y="942.3481">Compare&#160;"ENG_DIGEST"&#160;with&#160;"CHANGE_DIGEST"</text><polygon fill="#181818" points="108,1000.6797,98,1004.6797,108,1008.6797,104,1004.6797" style="stroke:#181818;stroke-width:1.0;"/><line style="stroke:#181818;stroke-width:1.0;stroke-dasharray:2.0,2.0;" x1="102" x2="636" y1="1004.6797" y2="1004.6797"/><text fill="#000000" font-family="Courier" font-size="13" font-weight="bold" lengthAdjust="spacing" textLength="16" x="114" y="992.0474">18</text><text fill="#000000" font-family="Courier" font-size="13" lengthAdjust="spacing" textLength="152" x="134" y="984.481">[&lt;0&#160;OK&#160;|&#160;52&#160;EBADE&gt;]</text><text fill="#000000" font-family="Courier" font-size="13" lengthAdjust="spacing" textLength="160" x="134" y="999.6138">Send&#160;checksum&#160;result</text><polygon fill="#181818" points="108,1103.75,98,1107.75,108,1111.75,104,1107.75" style="stroke:#181818;stroke-width:1.0;"/><line style="stroke:#181818;stroke-width:1.0;stroke-dasharray:2.0,2.0;" x1="102" x2="636" y1="1107.75" y2="1107.75"/><text fill="#000000" font-family="Courier" font-size="13" font-weight="bold" lengthAdjust="spacing" textLength="16" x="114" y="1095.1177">19</text><text fill="#000000" font-family="Courier" font-size="13" lengthAdjust="spacing" textLength="216" x="134" y="1087.5513">[&lt;ERROR_CODE&gt;&#160;&lt;ERROR_NAME&gt;]</text><text fill="#000000" font-family="Courier" font-size="13" lengthAdjust="spacing" textLength="240" x="134" y="1102.6841">Standard&#160;C&#160;error&#160;code&#160;and&#160;name</text><polygon fill="#181818" points="108,1146.8828,98,1150.8828,108,1154.8828,104,1150.8828" style="stroke:#181818;stroke-width:1.0;"/><line style="stroke:#181818;stroke-width:1.0;stroke-dasharray:2.0,2.0;" x1="102" x2="636" y1="1150.8828" y2="1150.8828"/><text fill="#000000" font-family="Courier" font-size="13" font-weight="bold" lengthAdjust="spacing" textLength="16" x="114" y="1145.8169">20</text><text fill="#000000" font-family="Courier" font-size="13" lengthAdjust="spacing" textLength="128" x="134" y="1145.8169">Close&#160;connection</text><!--SRC=[dLLjJzim4FwUNt7B5xPgI0LjceHGfPA4KhQsA1HfqegGIOxM8h4pss4mxSVld3HnYXgaxKjY- -wUvrxjTuLYwvo1GVaRZ2hHquzS54on778fPB9HCiVNaXGVM9cPSodCd94uaANYg3pFS9CXXD-lw4W8J0oNmiiP5m_AwWq6EXqChBmZzWZJy8GNJ1ZmJsAa9KTXV60QsjqhhMiKAQfAfLw-af_p3FMBDfXNEcxhUQmqKfJvlVMtXOV3qHRe17vSVRi9le9_UZLUNepyMu-Heq_CO4FbrNzhuu1F8DXWyjYQGO4gvrfJYDeXT1nnIpZiiE-rJt4VWdS0B3DmvDdlhfqnc3fMbyN6So9i3odY8Io-hiIbl3-SXjQ5oyNPtJIas5SYHfQ-m8DKWC_9XearMjvCoeA8gzzoEeiMDqiOmR0leTCgdntK2HeG-4mVcMA5xiGM_ruXUoI2-ZzlDLE9cbQ6dE7Qm7ikdbZ6Kr3uiqHjFlG5-EKJH6VZS7OzkUt2at9VDUCQaP1Pwbpzbqh6Q4eb6jSmhG5wIkcSQCp7wHCJ2RRf_SND1Wg5D7nS41e5JaEvnov9ohpCB44arf3OhjHblaSpH6DxHM0dlcrF7LSzvV9UfLltPVTeE3o2sIAEgB9MfRPXj32OPU2R3Ie4he4Po91HLYMHvf8EhQQ_spOTv4uiWUqz5qth9sOQOIuTsbjU3Y5Sp7UzJEWI8xd-k1Ba9bLB5v9asZ1JQcXjGFErO9bkWc4LMuVrVuBecPRnphIiH3YTHDTBcilWOZoVtDLR_xQog27nhJ87CY-iktxaZEjkgW6Zvh0lSQVsUe0_yFcu6g9er2Im8RLPe_UWKnGxL-qjiTtLTrLLh_QoigFiBgm-_YYE5_5Ti21gs6xcurdjXw4sOuho0AWKtID9qtg2NXplO4lQdVDTz22Jkkg2vZtg36XjyHS0]--></g></svg>