<?xml version="1.0" encoding="us-ascii" standalone="no"?><svg xmlns="http://www.w3.org/2000/svg" xmlns:xlink="http://www.w3.org/1999/xlink" contentStyleType="text/css" height="1499px" preserveAspectRatio="none" style="width:804px;height:1499px;background:#FFFFFF;" version="1.1" viewBox="0 0 804 1499" width="804px" zoomAndPan="magnify"><defs/><g><text fill="#000000" font-family="Courier" font-size="14" font-weight="bold" lengthAdjust="spacing" textLength="96" x="355" y="27.9951">DXP&#160;Sequence</text><rect fill="#FFFFFF" height="1441.4453" style="stroke:#181818;stroke-width:1.5;" width="780" x="18" y="52.2969"/><path d="M140,52.2969 L140,61.5938 L130,71.5938 L18,71.5938 " fill="none" style="stroke:#181818;stroke-width:1.5;"/><text fill="#000000" font-family="Courier" font-size="14" font-weight="bold" lengthAdjust="spacing" textLength="16" x="21" y="66.292">sd</text><text fill="#000000" font-family="Courier" font-size="14" lengthAdjust="spacing" textLength="88" x="45" y="66.292">DXPSequence</text><line style="stroke:#181818;stroke-width:0.5;stroke-dasharray:5.0,5.0;" x1="78" x2="78" y1="111.8906" y2="1447.1484"/><rect fill="#FFFFFF" height="1322.2578" style="stroke:#181818;stroke-width:1.0;" width="10" x="73" y="119.8906"/><line style="stroke:#181818;stroke-width:0.5;stroke-dasharray:5.0,5.0;" x1="436" x2="436" y1="111.8906" y2="1447.1484"/><rect fill="#FFFFFF" height="1187.5938" style="stroke:#181818;stroke-width:1.0;" width="10" x="431" y="228.5547"/><rect fill="#E3E3E3" height="30.2969" rx="2.5" ry="2.5" style="stroke:#181818;stroke-width:0.5;" width="86" x="35" y="80.5938"/><text fill="#000000" font-family="Courier" font-size="14" lengthAdjust="spacing" textLength="72" x="42" y="100.5889">ps:Sender</text><rect fill="#E3E3E3" height="30.2969" rx="2.5" ry="2.5" style="stroke:#181818;stroke-width:0.5;" width="110" x="381" y="80.5938"/><text fill="#000000" font-family="Courier" font-size="14" lengthAdjust="spacing" textLength="96" x="388" y="100.5889">ps:Recipient</text><rect fill="#E3E3E3" height="30.2969" rx="2.5" ry="2.5" style="stroke:#181818;stroke-width:0.5;" width="86" x="35" y="1447.1484"/><text fill="#000000" font-family="Courier" font-size="14" lengthAdjust="spacing" textLength="72" x="42" y="1467.1436">ps:Sender</text><rect fill="#E3E3E3" height="30.2969" rx="2.5" ry="2.5" style="stroke:#181818;stroke-width:0.5;" width="110" x="381" y="1447.1484"/><text fill="#000000" font-family="Courier" font-size="14" lengthAdjust="spacing" textLength="96" x="388" y="1467.1436">ps:Recipient</text><line style="stroke:#181818;stroke-width:1.0;" x1="83" x2="125" y1="141.0234" y2="141.0234"/><line style="stroke:#181818;stroke-width:1.0;" x1="125" x2="125" y1="141.0234" y2="154.0234"/><line style="stroke:#181818;stroke-width:1.0;" x1="84" x2="125" y1="154.0234" y2="154.0234"/><polygon fill="#181818" points="94,150.0234,84,154.0234,94,158.0234,90,154.0234" style="stroke:#181818;stroke-width:1.0;"/><text fill="#000000" font-family="Courier" font-size="13" font-weight="bold" lengthAdjust="spacing" textLength="8" x="90" y="135.9575">1</text><text fill="#000000" font-family="Courier" font-size="13" lengthAdjust="spacing" textLength="200" x="102" y="135.9575">Generate&#160;cookie&#160;and&#160;token</text><polygon fill="#181818" points="419,224.5547,429,228.5547,419,232.5547,423,228.5547" style="stroke:#181818;stroke-width:1.0;"/><line style="stroke:#181818;stroke-width:1.0;" x1="83" x2="425" y1="228.5547" y2="228.5547"/><text fill="#000000" font-family="Courier" font-size="13" font-weight="bold" lengthAdjust="spacing" textLength="8" x="90" y="200.7896">2</text><text fill="#000000" font-family="Courier" font-size="13" lengthAdjust="spacing" textLength="128" x="102" y="178.0903">PLUCK&#160;&lt;DIR_NAME&gt;</text><text fill="#000000" font-family="Courier" font-size="13" lengthAdjust="spacing" textLength="112" x="102" y="193.2231">Token:&#160;&lt;TOKEN&gt;</text><text fill="#000000" font-family="Courier" font-size="13" lengthAdjust="spacing" textLength="216" x="102" y="208.356">[Request&#160;to&#160;transfer&#160;a&#160;tree</text><text fill="#000000" font-family="Courier" font-size="13" lengthAdjust="spacing" textLength="168" x="102" y="223.4888">rooted&#160;at&#160;&lt;DIR_NAME&gt;]</text><line style="stroke:#181818;stroke-width:1.0;" x1="441" x2="483" y1="257.6875" y2="257.6875"/><line style="stroke:#181818;stroke-width:1.0;" x1="483" x2="483" y1="257.6875" y2="270.6875"/><line style="stroke:#181818;stroke-width:1.0;" x1="442" x2="483" y1="270.6875" y2="270.6875"/><polygon fill="#181818" points="452,266.6875,442,270.6875,452,274.6875,448,270.6875" style="stroke:#181818;stroke-width:1.0;"/><text fill="#000000" font-family="Courier" font-size="13" font-weight="bold" lengthAdjust="spacing" textLength="8" x="448" y="252.6216">3</text><text fill="#000000" font-family="Courier" font-size="13" lengthAdjust="spacing" textLength="112" x="460" y="252.6216">Remember&#160;token</text><path d="M24,282.6875 L93,282.6875 L93,289.8203 L83,299.8203 L24,299.8203 L24,282.6875 " fill="#EEEEEE" style="stroke:#000000;stroke-width:1.5;"/><rect fill="none" height="1098.3281" style="stroke:#000000;stroke-width:1.5;" width="757" x="24" y="282.6875"/><text fill="#000000" font-family="Courier" font-size="13" font-weight="bold" lengthAdjust="spacing" textLength="24" x="39" y="295.7544">alt</text><text fill="#000000" font-family="Courier" font-size="11" font-weight="bold" lengthAdjust="spacing" textLength="203" x="108" y="294.8979">[Recipient&#160;agrees&#160;to&#160;receive]</text><line style="stroke:#000000;stroke-width:1.0;stroke-dasharray:2.0,2.0;" x1="24" x2="781" y1="1301.8125" y2="1301.8125"/><text fill="#000000" font-family="Courier" font-size="11" font-weight="bold" lengthAdjust="spacing" textLength="210" x="29" y="1314.0229">[Recipent&#160;declines&#160;to&#160;receive]</text><polygon fill="#181818" points="94,357.2188,84,361.2188,94,365.2188,90,361.2188" style="stroke:#181818;stroke-width:1.0;"/><line style="stroke:#181818;stroke-width:1.0;stroke-dasharray:2.0,2.0;" x1="88" x2="430" y1="361.2188" y2="361.2188"/><text fill="#000000" font-family="Courier" font-size="13" font-weight="bold" lengthAdjust="spacing" textLength="8" x="100" y="341.02">4</text><text fill="#000000" font-family="Courier" font-size="13" lengthAdjust="spacing" textLength="80" x="112" y="325.8872">1000&#160;READY</text><text fill="#000000" font-family="Courier" font-size="13" lengthAdjust="spacing" textLength="112" x="112" y="341.02">Token:&#160;&lt;TOKEN&gt;</text><text fill="#000000" font-family="Courier" font-size="13" lengthAdjust="spacing" textLength="144" x="112" y="356.1528">[Ready&#160;to&#160;receive]</text><line style="stroke:#181818;stroke-width:1.0;" x1="83" x2="125" y1="390.3516" y2="390.3516"/><line style="stroke:#181818;stroke-width:1.0;" x1="125" x2="125" y1="390.3516" y2="403.3516"/><line style="stroke:#181818;stroke-width:1.0;" x1="84" x2="125" y1="403.3516" y2="403.3516"/><polygon fill="#181818" points="94,399.3516,84,403.3516,94,407.3516,90,403.3516" style="stroke:#181818;stroke-width:1.0;"/><text fill="#000000" font-family="Courier" font-size="13" font-weight="bold" lengthAdjust="spacing" textLength="8" x="90" y="385.2856">5</text><text fill="#000000" font-family="Courier" font-size="13" lengthAdjust="spacing" textLength="184" x="102" y="385.2856">Verify&#160;then&#160;renew&#160;token</text><polygon fill="#181818" points="419,458.75,429,462.75,419,466.75,423,462.75" style="stroke:#181818;stroke-width:1.0;"/><line style="stroke:#181818;stroke-width:1.0;" x1="83" x2="425" y1="462.75" y2="462.75"/><text fill="#000000" font-family="Courier" font-size="13" font-weight="bold" lengthAdjust="spacing" textLength="8" x="90" y="442.5513">6</text><text fill="#000000" font-family="Courier" font-size="13" lengthAdjust="spacing" textLength="128" x="102" y="427.4185">Cookie:&#160;&lt;COOKIE&gt;</text><text fill="#000000" font-family="Courier" font-size="13" lengthAdjust="spacing" textLength="112" x="102" y="442.5513">Token:&#160;&lt;TOKEN&gt;</text><text fill="#000000" font-family="Courier" font-size="13" lengthAdjust="spacing" textLength="104" x="102" y="457.6841">[Send&#160;cookie]</text><line style="stroke:#181818;stroke-width:1.0;" x1="441" x2="483" y1="491.8828" y2="491.8828"/><line style="stroke:#181818;stroke-width:1.0;" x1="483" x2="483" y1="491.8828" y2="504.8828"/><line style="stroke:#181818;stroke-width:1.0;" x1="442" x2="483" y1="504.8828" y2="504.8828"/><polygon fill="#181818" points="452,500.8828,442,504.8828,452,508.8828,448,504.8828" style="stroke:#181818;stroke-width:1.0;"/><text fill="#000000" font-family="Courier" font-size="13" font-weight="bold" lengthAdjust="spacing" textLength="8" x="448" y="486.8169">7</text><text fill="#000000" font-family="Courier" font-size="13" lengthAdjust="spacing" textLength="256" x="460" y="486.8169">Remember&#160;cookie&#160;and&#160;update&#160;token</text><path d="M43,516.8828 L120,516.8828 L120,524.0156 L110,534.0156 L43,534.0156 L43,516.8828 " fill="#EEEEEE" style="stroke:#000000;stroke-width:1.5;"/><rect fill="none" height="759.9297" style="stroke:#000000;stroke-width:1.5;" width="713" x="43" y="516.8828"/><text fill="#000000" font-family="Courier" font-size="13" font-weight="bold" lengthAdjust="spacing" textLength="32" x="58" y="529.9497">loop</text><polygon fill="#181818" points="94,591.4141,84,595.4141,94,599.4141,90,595.4141" style="stroke:#181818;stroke-width:1.0;"/><line style="stroke:#181818;stroke-width:1.0;stroke-dasharray:2.0,2.0;" x1="88" x2="430" y1="595.4141" y2="595.4141"/><text fill="#000000" font-family="Courier" font-size="13" font-weight="bold" lengthAdjust="spacing" textLength="8" x="100" y="575.2153">8</text><text fill="#000000" font-family="Courier" font-size="13" lengthAdjust="spacing" textLength="104" x="112" y="560.0825">PICK&#160;&lt;COOKIE&gt;</text><text fill="#000000" font-family="Courier" font-size="13" lengthAdjust="spacing" textLength="112" x="112" y="575.2153">Token:&#160;&lt;TOKEN&gt;</text><text fill="#000000" font-family="Courier" font-size="13" lengthAdjust="spacing" textLength="120" x="112" y="590.3481">[Get&#160;next&#160;node]</text><path d="M62,607.4141 L147,607.4141 L147,614.5469 L137,624.5469 L62,624.5469 L62,607.4141 " fill="#EEEEEE" style="stroke:#000000;stroke-width:1.5;"/><rect fill="none" height="97.1406" style="stroke:#000000;stroke-width:1.5;" width="390" x="62" y="607.4141"/><text fill="#000000" font-family="Courier" font-size="13" font-weight="bold" lengthAdjust="spacing" textLength="40" x="77" y="620.481">break</text><text fill="#000000" font-family="Courier" font-size="11" font-weight="bold" lengthAdjust="spacing" textLength="168" x="162" y="619.6245">[Either&#160;cookie&#160;not&#160;found</text><text fill="#000000" font-family="Courier" font-size="11" font-weight="bold" lengthAdjust="spacing" textLength="147" x="162" y="632.4292">or&#160;cookie&#160;is&#160;INVALID]</text><line style="stroke:#181818;stroke-width:1.0;" x1="429" x2="419" y1="696.5547" y2="692.5547"/><line style="stroke:#181818;stroke-width:1.0;" x1="429" x2="419" y1="696.5547" y2="700.5547"/><line style="stroke:#181818;stroke-width:1.0;" x1="83" x2="430" y1="696.5547" y2="696.5547"/><text fill="#000000" font-family="Courier" font-size="13" font-weight="bold" lengthAdjust="spacing" textLength="8" x="90" y="676.356">9</text><text fill="#000000" font-family="Courier" font-size="13" lengthAdjust="spacing" textLength="80" x="102" y="661.2231">74&#160;EBADMSG</text><text fill="#000000" font-family="Courier" font-size="13" lengthAdjust="spacing" textLength="160" x="102" y="676.356">[Refuse&#160;PICK&#160;request</text><text fill="#000000" font-family="Courier" font-size="13" lengthAdjust="spacing" textLength="176" x="102" y="691.4888">then&#160;close&#160;connection]</text><line style="stroke:#181818;stroke-width:1.0;" x1="83" x2="125" y1="739.6875" y2="739.6875"/><line style="stroke:#181818;stroke-width:1.0;" x1="125" x2="125" y1="739.6875" y2="752.6875"/><line style="stroke:#181818;stroke-width:1.0;" x1="84" x2="125" y1="752.6875" y2="752.6875"/><polygon fill="#181818" points="94,748.6875,84,752.6875,94,756.6875,90,752.6875" style="stroke:#181818;stroke-width:1.0;"/><text fill="#000000" font-family="Courier" font-size="13" font-weight="bold" lengthAdjust="spacing" textLength="16" x="90" y="734.6216">10</text><text fill="#000000" font-family="Courier" font-size="13" lengthAdjust="spacing" textLength="96" x="110" y="734.6216">Verify&#160;token</text><line style="stroke:#181818;stroke-width:1.0;" x1="83" x2="125" y1="781.8203" y2="781.8203"/><line style="stroke:#181818;stroke-width:1.0;" x1="125" x2="125" y1="781.8203" y2="794.8203"/><line style="stroke:#181818;stroke-width:1.0;" x1="84" x2="125" y1="794.8203" y2="794.8203"/><polygon fill="#181818" points="94,790.8203,84,794.8203,94,798.8203,90,794.8203" style="stroke:#181818;stroke-width:1.0;"/><text fill="#000000" font-family="Courier" font-size="13" font-weight="bold" lengthAdjust="spacing" textLength="16" x="90" y="776.7544">11</text><text fill="#000000" font-family="Courier" font-size="13" lengthAdjust="spacing" textLength="184" x="110" y="776.7544">Accumulate&#160;Eng&#160;checksum</text><line style="stroke:#181818;stroke-width:1.0;" x1="83" x2="125" y1="823.9531" y2="823.9531"/><line style="stroke:#181818;stroke-width:1.0;" x1="125" x2="125" y1="823.9531" y2="836.9531"/><line style="stroke:#181818;stroke-width:1.0;" x1="84" x2="125" y1="836.9531" y2="836.9531"/><polygon fill="#181818" points="94,832.9531,84,836.9531,94,840.9531,90,836.9531" style="stroke:#181818;stroke-width:1.0;"/><text fill="#000000" font-family="Courier" font-size="13" font-weight="bold" lengthAdjust="spacing" textLength="16" x="90" y="818.8872">12</text><text fill="#000000" font-family="Courier" font-size="13" lengthAdjust="spacing" textLength="152" x="110" y="818.8872">Determine&#160;next&#160;node</text><path d="M62,848.9531 L147,848.9531 L147,856.0859 L137,866.0859 L62,866.0859 L62,848.9531 " fill="#EEEEEE" style="stroke:#000000;stroke-width:1.5;"/><rect fill="none" height="228.0625" style="stroke:#000000;stroke-width:1.5;" width="669" x="62" y="848.9531"/><text fill="#000000" font-family="Courier" font-size="13" font-weight="bold" lengthAdjust="spacing" textLength="40" x="77" y="862.02">break</text><text fill="#000000" font-family="Courier" font-size="11" font-weight="bold" lengthAdjust="spacing" textLength="182" x="162" y="861.1636">[Next&#160;node&#160;does&#160;not&#160;exist]</text><line style="stroke:#181818;stroke-width:1.0;" x1="429" x2="419" y1="942.6172" y2="938.6172"/><line style="stroke:#181818;stroke-width:1.0;" x1="429" x2="419" y1="942.6172" y2="946.6172"/><line style="stroke:#181818;stroke-width:1.0;" x1="83" x2="430" y1="942.6172" y2="942.6172"/><text fill="#000000" font-family="Courier" font-size="13" font-weight="bold" lengthAdjust="spacing" textLength="16" x="90" y="914.8521">13</text><text fill="#000000" font-family="Courier" font-size="13" lengthAdjust="spacing" textLength="72" x="110" y="892.1528">2000&#160;DONE</text><text fill="#000000" font-family="Courier" font-size="13" lengthAdjust="spacing" textLength="176" x="110" y="907.2856">DIGEST:&#160;&lt;CHANG_DIGEST&gt;</text><text fill="#000000" font-family="Courier" font-size="13" lengthAdjust="spacing" textLength="240" x="110" y="922.4185">[Send&#160;node&#160;and&#160;Chang&#160;checksum,</text><text fill="#000000" font-family="Courier" font-size="13" lengthAdjust="spacing" textLength="176" x="110" y="937.5513">then&#160;close&#160;connection]</text><line style="stroke:#181818;stroke-width:1.0;" x1="441" x2="483" y1="971.75" y2="971.75"/><line style="stroke:#181818;stroke-width:1.0;" x1="483" x2="483" y1="971.75" y2="984.75"/><line style="stroke:#181818;stroke-width:1.0;" x1="442" x2="483" y1="984.75" y2="984.75"/><polygon fill="#181818" points="452,980.75,442,984.75,452,988.75,448,984.75" style="stroke:#181818;stroke-width:1.0;"/><text fill="#000000" font-family="Courier" font-size="13" font-weight="bold" lengthAdjust="spacing" textLength="16" x="448" y="966.6841">14</text><text fill="#000000" font-family="Courier" font-size="13" lengthAdjust="spacing" textLength="184" x="468" y="966.6841">Forget&#160;cookie&#160;and&#160;token</text><line style="stroke:#181818;stroke-width:1.0;" x1="441" x2="483" y1="1013.8828" y2="1013.8828"/><line style="stroke:#181818;stroke-width:1.0;" x1="483" x2="483" y1="1013.8828" y2="1026.8828"/><line style="stroke:#181818;stroke-width:1.0;" x1="442" x2="483" y1="1026.8828" y2="1026.8828"/><polygon fill="#181818" points="452,1022.8828,442,1026.8828,452,1030.8828,448,1026.8828" style="stroke:#181818;stroke-width:1.0;"/><text fill="#000000" font-family="Courier" font-size="13" font-weight="bold" lengthAdjust="spacing" textLength="16" x="448" y="1008.8169">15</text><text fill="#000000" font-family="Courier" font-size="13" lengthAdjust="spacing" textLength="200" x="468" y="1008.8169">Accumulate&#160;Chang&#160;checksum</text><line style="stroke:#181818;stroke-width:1.0;" x1="441" x2="483" y1="1056.0156" y2="1056.0156"/><line style="stroke:#181818;stroke-width:1.0;" x1="483" x2="483" y1="1056.0156" y2="1069.0156"/><line style="stroke:#181818;stroke-width:1.0;" x1="442" x2="483" y1="1069.0156" y2="1069.0156"/><polygon fill="#181818" points="452,1065.0156,442,1069.0156,452,1073.0156,448,1069.0156" style="stroke:#181818;stroke-width:1.0;"/><text fill="#000000" font-family="Courier" font-size="13" font-weight="bold" lengthAdjust="spacing" textLength="16" x="448" y="1050.9497">16</text><text fill="#000000" font-family="Courier" font-size="13" lengthAdjust="spacing" textLength="240" x="468" y="1050.9497">Compare&#160;Eng&#160;and&#160;Chang&#160;checksum</text><line style="stroke:#181818;stroke-width:1.0;" x1="83" x2="125" y1="1112.1484" y2="1112.1484"/><line style="stroke:#181818;stroke-width:1.0;" x1="125" x2="125" y1="1112.1484" y2="1125.1484"/><line style="stroke:#181818;stroke-width:1.0;" x1="84" x2="125" y1="1125.1484" y2="1125.1484"/><polygon fill="#181818" points="94,1121.1484,84,1125.1484,94,1129.1484,90,1125.1484" style="stroke:#181818;stroke-width:1.0;"/><text fill="#000000" font-family="Courier" font-size="13" font-weight="bold" lengthAdjust="spacing" textLength="16" x="90" y="1107.0825">17</text><text fill="#000000" font-family="Courier" font-size="13" lengthAdjust="spacing" textLength="88" x="110" y="1107.0825">Renew&#160;token</text><polygon fill="#181818" points="419,1180.5469,429,1184.5469,419,1188.5469,423,1184.5469" style="stroke:#181818;stroke-width:1.0;"/><line style="stroke:#181818;stroke-width:1.0;" x1="83" x2="425" y1="1184.5469" y2="1184.5469"/><text fill="#000000" font-family="Courier" font-size="13" font-weight="bold" lengthAdjust="spacing" textLength="16" x="90" y="1164.3481">18</text><text fill="#000000" font-family="Courier" font-size="13" lengthAdjust="spacing" textLength="72" x="110" y="1149.2153">2001&#160;MORE</text><text fill="#000000" font-family="Courier" font-size="13" lengthAdjust="spacing" textLength="112" x="110" y="1164.3481">Token:&#160;&lt;TOKEN&gt;</text><text fill="#000000" font-family="Courier" font-size="13" lengthAdjust="spacing" textLength="296" x="110" y="1179.481">[Send&#160;node&#160;and&#160;tell&#160;next&#160;node&#160;exists]</text><line style="stroke:#181818;stroke-width:1.0;" x1="441" x2="483" y1="1213.6797" y2="1213.6797"/><line style="stroke:#181818;stroke-width:1.0;" x1="483" x2="483" y1="1213.6797" y2="1226.6797"/><line style="stroke:#181818;stroke-width:1.0;" x1="442" x2="483" y1="1226.6797" y2="1226.6797"/><polygon fill="#181818" points="452,1222.6797,442,1226.6797,452,1230.6797,448,1226.6797" style="stroke:#181818;stroke-width:1.0;"/><text fill="#000000" font-family="Courier" font-size="13" font-weight="bold" lengthAdjust="spacing" textLength="16" x="448" y="1208.6138">19</text><text fill="#000000" font-family="Courier" font-size="13" lengthAdjust="spacing" textLength="96" x="468" y="1208.6138">Update&#160;token</text><line style="stroke:#181818;stroke-width:1.0;" x1="441" x2="483" y1="1255.8125" y2="1255.8125"/><line style="stroke:#181818;stroke-width:1.0;" x1="483" x2="483" y1="1255.8125" y2="1268.8125"/><line style="stroke:#181818;stroke-width:1.0;" x1="442" x2="483" y1="1268.8125" y2="1268.8125"/><polygon fill="#181818" points="452,1264.8125,442,1268.8125,452,1272.8125,448,1268.8125" style="stroke:#181818;stroke-width:1.0;"/><text fill="#000000" font-family="Courier" font-size="13" font-weight="bold" lengthAdjust="spacing" textLength="16" x="448" y="1250.7466">20</text><text fill="#000000" font-family="Courier" font-size="13" lengthAdjust="spacing" textLength="200" x="468" y="1250.7466">Accumulate&#160;Chang&#160;checksum</text><polygon fill="#181818" points="94,1369.0156,84,1373.0156,94,1377.0156,90,1373.0156" style="stroke:#181818;stroke-width:1.0;"/><line style="stroke:#181818;stroke-width:1.0;stroke-dasharray:2.0,2.0;" x1="88" x2="430" y1="1373.0156" y2="1373.0156"/><text fill="#000000" font-family="Courier" font-size="13" font-weight="bold" lengthAdjust="spacing" textLength="16" x="100" y="1352.8169">21</text><text fill="#000000" font-family="Courier" font-size="13" lengthAdjust="spacing" textLength="104" x="120" y="1337.6841">1001&#160;DECLINED</text><text fill="#000000" font-family="Courier" font-size="13" lengthAdjust="spacing" textLength="112" x="120" y="1352.8169">Token:&#160;&lt;TOKEN&gt;</text><text fill="#000000" font-family="Courier" font-size="13" lengthAdjust="spacing" textLength="304" x="120" y="1367.9497">[Refuse&#160;request&#160;then&#160;close&#160;connection]</text><line style="stroke:#181818;stroke-width:1.0;" x1="441" x2="483" y1="1416.1484" y2="1416.1484"/><line style="stroke:#181818;stroke-width:1.0;" x1="483" x2="483" y1="1416.1484" y2="1429.1484"/><line style="stroke:#181818;stroke-width:1.0;" x1="436" x2="483" y1="1429.1484" y2="1429.1484"/><polygon fill="#181818" points="446,1425.1484,436,1429.1484,446,1433.1484,442,1429.1484" style="stroke:#181818;stroke-width:1.0;"/><text fill="#000000" font-family="Courier" font-size="13" font-weight="bold" lengthAdjust="spacing" textLength="16" x="448" y="1411.0825">22</text><text fill="#000000" font-family="Courier" font-size="13" lengthAdjust="spacing" textLength="72" x="468" y="1411.0825">Terminate</text><!--SRC=[bLHjJzim4FwUNt7ZowHgaoYQDAb2I5qIkWX8KLhGfXKXarnRgycvint6zkjtJjeqXGQsBt7iEpz-xhcNTsij5eK0Y-eFM5sYPrQIraAB0Wf5AbrgLU1pIuPpKURsN96D1PjzLMg9slEij3b2yEqQ9lYpH4hHAuIakNPUlPx9UZrdROmUurcPohKW2qThCvWWPQYFG1YeVrzu9CWRYMGhfsRdUQAqYihYWU-8rCf7ON6BuTKhV3pRd0nWX8JQkQHAhII2e0oiMY6rV1lm0LnVtlWNS1f4oNqyl0hFPZHrpWCudOulmfZtFn8NbB6Cmd89CdC6OM4rueoqKXOp4BO5SUVjUBR2Q7wVCKYmG1VSXgNt7aHkeU-vx-wEMF1xnd7GcA9yn3t0Llpzu-DZIC9XyFrWA2BxtGAvEo3WBMevPwSb4hiH_dfDFhyIcP_mn-EBwA1yxjuc6NTlYz3AMhdEd8IDBBbIQzR5BLt1NqSkcTrSHcY1y8a_AcCs3FgWKQmOjLv3oM4t94XPcAkIiXcfvb0QYEBRuMKKjAflBvRFdo3yCWok9gDAyNbfi2QcwqAQKQLjcYlZgfG8kLeKxT5XOE-Lt3nBoDOyJDEoA7EdMaWBI9UOhanP7F0CqA8k9E5EZjtp9nirugq9CiMrv-J09sbiL-0dhlI2SHpEA8X6uMJgwkBhC1xTrzkc6YfCbs9_ALeyFtGgqrKsvqelEAKlMhtBloNG_jETDtnLyA2gzNp9kArPHygIjrg8LUl3rJW9ktgdKSjYdk_oLUV2T8jpq-wV_rTart5LPDknXBdPZ3K7bc6QSnNzus3gGn3wbr4S1WTdKzKfUZjjktfaGyDnwWfgMjKsn-Hv6HwOnQt3cjrV]--></g></svg>