<?xml version="1.0" encoding="us-ascii" standalone="no"?><svg xmlns="http://www.w3.org/2000/svg" xmlns:xlink="http://www.w3.org/1999/xlink" contentStyleType="text/css" height="1221px" preserveAspectRatio="none" style="width:1004px;height:1221px;background:#FFFFFF;" version="1.1" viewBox="0 0 1004 1221" width="1004px" zoomAndPan="magnify"><defs/><g><text fill="#000000" font-family="Courier New" font-size="14" font-weight="bold" lengthAdjust="spacing" textLength="126" x="442.5" y="27.9951">DXP Connection</text><rect fill="#FFFFFF" height="1163.1797" style="stroke:#181818;stroke-width:1.5;" width="975" x="23" y="52.2969"/><path d="M165,52.2969 L165,61.5938 L155,71.5938 L23,71.5938 " fill="none" style="stroke:#181818;stroke-width:1.5;"/><text fill="#000000" font-family="Courier New" font-size="14" font-weight="bold" lengthAdjust="spacing" textLength="19" x="26" y="66.292">sd</text><text fill="#000000" font-family="Courier New" font-size="14" lengthAdjust="spacing" textLength="109" x="49" y="66.292">DXPConnection</text><line style="stroke:#181818;stroke-width:0.5;stroke-dasharray:5.0,5.0;" x1="87" x2="87" y1="111.8906" y2="1168.8828"/><rect fill="#FFFFFF" height="930.4609" style="stroke:#181818;stroke-width:1.0;" width="10" x="82" y="238.4219"/><line style="stroke:#181818;stroke-width:0.5;stroke-dasharray:5.0,5.0;" x1="545" x2="545" y1="111.8906" y2="1168.8828"/><rect fill="#FFFFFF" height="1009.8594" style="stroke:#181818;stroke-width:1.0;" width="10" x="540" y="141.0234"/><line style="stroke:#181818;stroke-width:0.5;stroke-dasharray:5.0,5.0;" x1="894" x2="894" y1="111.8906" y2="1168.8828"/><rect fill="#FFFFFF" height="29.1328" style="stroke:#181818;stroke-width:1.0;" width="10" x="889" y="170.1563"/><rect fill="#FFFFFF" height="29.1328" style="stroke:#181818;stroke-width:1.0;" width="10" x="889" y="468.6172"/><rect fill="#E3E3E3" height="30.2969" rx="2.5" ry="2.5" style="stroke:#181818;stroke-width:0.5;" width="84" x="45" y="80.5938"/><text fill="#000000" font-family="Courier New" font-size="14" lengthAdjust="spacing" textLength="70" x="52" y="100.5889">:Recipient</text><rect fill="#E3E3E3" height="30.2969" rx="2.5" ry="2.5" style="stroke:#181818;stroke-width:0.5;" width="69" x="510.5" y="80.5938"/><text fill="#000000" font-family="Courier New" font-size="14" lengthAdjust="spacing" textLength="55" x="517.5" y="100.5889">:Sender</text><rect fill="#E3E3E3" height="30.2969" rx="2.5" ry="2.5" style="stroke:#181818;stroke-width:0.5;" width="92" x="848" y="80.5938"/><text fill="#000000" font-family="Courier New" font-size="14" lengthAdjust="spacing" textLength="78" x="855" y="100.5889">:Filesystem</text><rect fill="#E3E3E3" height="30.2969" rx="2.5" ry="2.5" style="stroke:#181818;stroke-width:0.5;" width="84" x="45" y="1168.8828"/><text fill="#000000" font-family="Courier New" font-size="14" lengthAdjust="spacing" textLength="70" x="52" y="1188.8779">:Recipient</text><rect fill="#E3E3E3" height="30.2969" rx="2.5" ry="2.5" style="stroke:#181818;stroke-width:0.5;" width="69" x="510.5" y="1168.8828"/><text fill="#000000" font-family="Courier New" font-size="14" lengthAdjust="spacing" textLength="55" x="517.5" y="1188.8779">:Sender</text><rect fill="#E3E3E3" height="30.2969" rx="2.5" ry="2.5" style="stroke:#181818;stroke-width:0.5;" width="92" x="848" y="1168.8828"/><text fill="#000000" font-family="Courier New" font-size="14" lengthAdjust="spacing" textLength="78" x="855" y="1188.8779">:Filesystem</text><polygon fill="#181818" points="528,137.0234,538,141.0234,528,145.0234,532,141.0234" style="stroke:#181818;stroke-width:1.0;"/><line style="stroke:#181818;stroke-width:1.0;" x1="87" x2="534" y1="141.0234" y2="141.0234"/><text fill="#000000" font-family="Courier New" font-size="13" font-weight="bold" lengthAdjust="spacing" textLength="9" x="94" y="135.9575">1</text><text fill="#000000" font-family="Courier New" font-size="13" lengthAdjust="spacing" textLength="122" x="107" y="135.9575">[PLUCK "&lt;PATH&gt;"]</text><polygon fill="#181818" points="877,166.1563,887,170.1563,877,174.1563,881,170.1563" style="stroke:#181818;stroke-width:1.0;"/><line style="stroke:#181818;stroke-width:1.0;" x1="550" x2="883" y1="170.1563" y2="170.1563"/><text fill="#000000" font-family="Courier New" font-size="13" font-weight="bold" lengthAdjust="spacing" textLength="9" x="557" y="165.0903">2</text><text fill="#000000" font-family="Courier New" font-size="13" lengthAdjust="spacing" textLength="190" x="570" y="165.0903">Check "&lt;PATH&gt;" permissions</text><polygon fill="#181818" points="561,195.2891,551,199.2891,561,203.2891,557,199.2891" style="stroke:#181818;stroke-width:1.0;"/><line style="stroke:#181818;stroke-width:1.0;stroke-dasharray:2.0,2.0;" x1="555" x2="888" y1="199.2891" y2="199.2891"/><text fill="#000000" font-family="Courier New" font-size="13" font-weight="bold" lengthAdjust="spacing" textLength="9" x="567" y="194.2231">3</text><text fill="#000000" font-family="Courier New" font-size="13" lengthAdjust="spacing" textLength="147" x="580" y="194.2231">"&lt;PATH&gt;" permissions</text><path d="M29,211.2891 L93,211.2891 L93,218.4219 L83,228.4219 L29,228.4219 L29,211.2891 " fill="#EEEEEE" style="stroke:#000000;stroke-width:1.5;"/><rect fill="none" height="904.4609" style="stroke:#000000;stroke-width:1.5;" width="952" x="29" y="211.2891"/><text fill="#000000" font-family="Courier New" font-size="13" font-weight="bold" lengthAdjust="spacing" textLength="19" x="44" y="224.356">alt</text><text fill="#000000" font-family="Courier New" font-size="11" font-weight="bold" lengthAdjust="spacing" textLength="139" x="108" y="223.4995">["&lt;PATH&gt;" permitted]</text><line style="stroke:#000000;stroke-width:1.0;stroke-dasharray:2.0,2.0;" x1="29" x2="981" y1="1051.6797" y2="1051.6797"/><text fill="#000000" font-family="Courier New" font-size="11" font-weight="bold" lengthAdjust="spacing" textLength="164" x="34" y="1063.8901">["&lt;PATH&gt;" not permitted]</text><polygon fill="#181818" points="103,285.8203,93,289.8203,103,293.8203,99,289.8203" style="stroke:#181818;stroke-width:1.0;"/><line style="stroke:#181818;stroke-width:1.0;stroke-dasharray:2.0,2.0;" x1="97" x2="539" y1="289.8203" y2="289.8203"/><text fill="#000000" font-family="Courier New" font-size="13" font-weight="bold" lengthAdjust="spacing" textLength="9" x="109" y="269.6216">4</text><text fill="#000000" font-family="Courier New" font-size="13" lengthAdjust="spacing" textLength="35" x="122" y="254.4888">[0 OK</text><text fill="#000000" font-family="Courier New" font-size="13" lengthAdjust="spacing" textLength="124" x="122" y="269.6216">Job-ID: "&lt;JOB_ID&gt;"]</text><text fill="#000000" font-family="Courier New" font-size="13" lengthAdjust="spacing" textLength="126" x="122" y="284.7544">Ready for exchange</text><path d="M52,301.8203 L129,301.8203 L129,308.9531 L119,318.9531 L52,318.9531 L52,301.8203 " fill="#EEEEEE" style="stroke:#000000;stroke-width:1.5;"/><rect fill="none" height="724.8594" style="stroke:#000000;stroke-width:1.5;" width="904" x="52" y="301.8203"/><text fill="#000000" font-family="Courier New" font-size="13" font-weight="bold" lengthAdjust="spacing" textLength="32" x="67" y="314.8872">loop</text><text fill="#000000" font-family="Courier New" font-size="11" font-weight="bold" lengthAdjust="spacing" textLength="93" x="144" y="314.0308">[TIMEOUT &gt; 0]</text><polygon fill="#181818" points="528,361.2188,538,365.2188,528,369.2188,532,365.2188" style="stroke:#181818;stroke-width:1.0;"/><line style="stroke:#181818;stroke-width:1.0;" x1="92" x2="534" y1="365.2188" y2="365.2188"/><text fill="#000000" font-family="Courier New" font-size="13" font-weight="bold" lengthAdjust="spacing" textLength="9" x="99" y="352.5864">5</text><text fill="#000000" font-family="Courier New" font-size="13" lengthAdjust="spacing" textLength="116" x="112" y="345.02">[PICK "&lt;JOB_ID&gt;"]</text><text fill="#000000" font-family="Courier New" font-size="13" lengthAdjust="spacing" textLength="190" x="112" y="360.1528">Get next node for "&lt;JOB_ID&gt;"</text><path d="M71,377.2188 L159,377.2188 L159,384.3516 L149,394.3516 L71,394.3516 L71,377.2188 " fill="#EEEEEE" style="stroke:#000000;stroke-width:1.5;"/><rect fill="none" height="56.2656" style="stroke:#000000;stroke-width:1.5;" width="490" x="71" y="377.2188"/><text fill="#000000" font-family="Courier New" font-size="13" font-weight="bold" lengthAdjust="spacing" textLength="43" x="86" y="390.2856">break</text><text fill="#000000" font-family="Courier New" font-size="11" font-weight="bold" lengthAdjust="spacing" textLength="280" x="174" y="389.4292">[Next node does not exist (invalid request)]</text><polygon fill="#181818" points="103,421.4844,93,425.4844,103,429.4844,99,425.4844" style="stroke:#181818;stroke-width:1.0;"/><line style="stroke:#181818;stroke-width:1.0;stroke-dasharray:2.0,2.0;" x1="97" x2="539" y1="425.4844" y2="425.4844"/><text fill="#000000" font-family="Courier New" font-size="13" font-weight="bold" lengthAdjust="spacing" textLength="9" x="109" y="420.4185">6</text><text fill="#000000" font-family="Courier New" font-size="13" lengthAdjust="spacing" textLength="96" x="122" y="420.4185">[74 EBADMSG]</text><polygon fill="#181818" points="877,464.6172,887,468.6172,877,472.6172,881,468.6172" style="stroke:#181818;stroke-width:1.0;"/><line style="stroke:#181818;stroke-width:1.0;" x1="550" x2="883" y1="468.6172" y2="468.6172"/><text fill="#000000" font-family="Courier New" font-size="13" font-weight="bold" lengthAdjust="spacing" textLength="9" x="557" y="463.5513">7</text><text fill="#000000" font-family="Courier New" font-size="13" lengthAdjust="spacing" textLength="153" x="570" y="463.5513">Request read next node</text><polygon fill="#181818" points="561,493.75,551,497.75,561,501.75,557,497.75" style="stroke:#181818;stroke-width:1.0;"/><line style="stroke:#181818;stroke-width:1.0;stroke-dasharray:2.0,2.0;" x1="555" x2="888" y1="497.75" y2="497.75"/><text fill="#000000" font-family="Courier New" font-size="13" font-weight="bold" lengthAdjust="spacing" textLength="9" x="567" y="492.6841">8</text><text fill="#000000" font-family="Courier New" font-size="13" lengthAdjust="spacing" textLength="147" x="580" y="492.6841">Return requested node</text><line style="stroke:#181818;stroke-width:1.0;" x1="550" x2="592" y1="526.8828" y2="526.8828"/><line style="stroke:#181818;stroke-width:1.0;" x1="592" x2="592" y1="526.8828" y2="539.8828"/><line style="stroke:#181818;stroke-width:1.0;" x1="551" x2="592" y1="539.8828" y2="539.8828"/><polygon fill="#181818" points="561,535.8828,551,539.8828,561,543.8828,557,539.8828" style="stroke:#181818;stroke-width:1.0;"/><text fill="#000000" font-family="Courier New" font-size="13" font-weight="bold" lengthAdjust="spacing" textLength="9" x="557" y="521.8169">9</text><text fill="#000000" font-family="Courier New" font-size="13" lengthAdjust="spacing" textLength="254" x="570" y="521.8169">Advance TIMEOUT with predefined value</text><line style="stroke:#181818;stroke-width:1.0;" x1="550" x2="592" y1="569.0156" y2="569.0156"/><line style="stroke:#181818;stroke-width:1.0;" x1="592" x2="592" y1="569.0156" y2="582.0156"/><line style="stroke:#181818;stroke-width:1.0;" x1="551" x2="592" y1="582.0156" y2="582.0156"/><polygon fill="#181818" points="561,578.0156,551,582.0156,561,586.0156,557,582.0156" style="stroke:#181818;stroke-width:1.0;"/><text fill="#000000" font-family="Courier New" font-size="13" font-weight="bold" lengthAdjust="spacing" textLength="18" x="557" y="563.9497">10</text><text fill="#000000" font-family="Courier New" font-size="13" lengthAdjust="spacing" textLength="173" x="579" y="563.9497">Accumulate Eng checksum</text><line style="stroke:#181818;stroke-width:1.0;" x1="550" x2="592" y1="611.1484" y2="611.1484"/><line style="stroke:#181818;stroke-width:1.0;" x1="592" x2="592" y1="611.1484" y2="624.1484"/><line style="stroke:#181818;stroke-width:1.0;" x1="551" x2="592" y1="624.1484" y2="624.1484"/><polygon fill="#181818" points="561,620.1484,551,624.1484,561,628.1484,557,624.1484" style="stroke:#181818;stroke-width:1.0;"/><text fill="#000000" font-family="Courier New" font-size="13" font-weight="bold" lengthAdjust="spacing" textLength="18" x="557" y="606.0825">11</text><text fill="#000000" font-family="Courier New" font-size="13" lengthAdjust="spacing" textLength="136" x="579" y="606.0825">Determine next node</text><path d="M71,636.1484 L135,636.1484 L135,643.2813 L125,653.2813 L71,653.2813 L71,636.1484 " fill="#EEEEEE" style="stroke:#000000;stroke-width:1.5;"/><rect fill="none" height="376.5313" style="stroke:#000000;stroke-width:1.5;" width="839" x="71" y="636.1484"/><text fill="#000000" font-family="Courier New" font-size="13" font-weight="bold" lengthAdjust="spacing" textLength="19" x="86" y="649.2153">alt</text><text fill="#000000" font-family="Courier New" font-size="11" font-weight="bold" lengthAdjust="spacing" textLength="117" x="150" y="648.3589">[Next node exists]</text><line style="stroke:#000000;stroke-width:1.0;stroke-dasharray:2.0,2.0;" x1="71" x2="910" y1="760.6797" y2="760.6797"/><text fill="#000000" font-family="Courier New" font-size="11" font-weight="bold" lengthAdjust="spacing" textLength="106" x="76" y="772.8901">[No more nodes]</text><polygon fill="#181818" points="103,695.5469,93,699.5469,103,703.5469,99,699.5469" style="stroke:#181818;stroke-width:1.0;"/><line style="stroke:#181818;stroke-width:1.0;stroke-dasharray:2.0,2.0;" x1="97" x2="539" y1="699.5469" y2="699.5469"/><text fill="#000000" font-family="Courier New" font-size="13" font-weight="bold" lengthAdjust="spacing" textLength="18" x="109" y="686.9146">12</text><text fill="#000000" font-family="Courier New" font-size="13" lengthAdjust="spacing" textLength="75" x="131" y="679.3481">[101 MORE]</text><text fill="#000000" font-family="Courier New" font-size="13" lengthAdjust="spacing" textLength="336" x="131" y="694.481">Send node and tell "there is at least one more node"</text><line style="stroke:#181818;stroke-width:1.0;" x1="92" x2="134" y1="728.6797" y2="728.6797"/><line style="stroke:#181818;stroke-width:1.0;" x1="134" x2="134" y1="728.6797" y2="741.6797"/><line style="stroke:#181818;stroke-width:1.0;" x1="93" x2="134" y1="741.6797" y2="741.6797"/><polygon fill="#181818" points="103,737.6797,93,741.6797,103,745.6797,99,741.6797" style="stroke:#181818;stroke-width:1.0;"/><text fill="#000000" font-family="Courier New" font-size="13" font-weight="bold" lengthAdjust="spacing" textLength="18" x="99" y="723.6138">13</text><text fill="#000000" font-family="Courier New" font-size="13" lengthAdjust="spacing" textLength="190" x="121" y="723.6138">Accumulate Chang checksum</text><polygon fill="#181818" points="103,827.8828,93,831.8828,103,835.8828,99,831.8828" style="stroke:#181818;stroke-width:1.0;"/><line style="stroke:#181818;stroke-width:1.0;stroke-dasharray:2.0,2.0;" x1="97" x2="539" y1="831.8828" y2="831.8828"/><text fill="#000000" font-family="Courier New" font-size="13" font-weight="bold" lengthAdjust="spacing" textLength="18" x="109" y="811.6841">14</text><text fill="#000000" font-family="Courier New" font-size="13" lengthAdjust="spacing" textLength="76" x="131" y="796.5513">[100 DONE]</text><text fill="#000000" font-family="Courier New" font-size="13" lengthAdjust="spacing" textLength="133" x="131" y="811.6841">Send node contents,</text><text fill="#000000" font-family="Courier New" font-size="13" lengthAdjust="spacing" textLength="402" x="131" y="826.8169">the respond status 100 DONE signals "there is no more nodes"</text><line style="stroke:#181818;stroke-width:1.0;" x1="92" x2="134" y1="861.0156" y2="861.0156"/><line style="stroke:#181818;stroke-width:1.0;" x1="134" x2="134" y1="861.0156" y2="874.0156"/><line style="stroke:#181818;stroke-width:1.0;" x1="93" x2="134" y1="874.0156" y2="874.0156"/><polygon fill="#181818" points="103,870.0156,93,874.0156,103,878.0156,99,874.0156" style="stroke:#181818;stroke-width:1.0;"/><text fill="#000000" font-family="Courier New" font-size="13" font-weight="bold" lengthAdjust="spacing" textLength="18" x="99" y="855.9497">15</text><text fill="#000000" font-family="Courier New" font-size="13" lengthAdjust="spacing" textLength="190" x="121" y="855.9497">Accumulate Chang checksum</text><polygon fill="#181818" points="528,914.2813,538,918.2813,528,922.2813,532,918.2813" style="stroke:#181818;stroke-width:1.0;"/><line style="stroke:#181818;stroke-width:1.0;" x1="92" x2="534" y1="918.2813" y2="918.2813"/><text fill="#000000" font-family="Courier New" font-size="13" font-weight="bold" lengthAdjust="spacing" textLength="18" x="99" y="905.6489">16</text><text fill="#000000" font-family="Courier New" font-size="13" lengthAdjust="spacing" textLength="117" x="121" y="898.0825">[PACK "&lt;JOB_ID&gt;"</text><text fill="#000000" font-family="Courier New" font-size="13" lengthAdjust="spacing" textLength="331" x="121" y="913.2153">DIGEST: "CHANG_DIGEST"] Send Change checksum</text><line style="stroke:#181818;stroke-width:1.0;" x1="550" x2="592" y1="947.4141" y2="947.4141"/><line style="stroke:#181818;stroke-width:1.0;" x1="592" x2="592" y1="947.4141" y2="960.4141"/><line style="stroke:#181818;stroke-width:1.0;" x1="551" x2="592" y1="960.4141" y2="960.4141"/><polygon fill="#181818" points="561,956.4141,551,960.4141,561,964.4141,557,960.4141" style="stroke:#181818;stroke-width:1.0;"/><text fill="#000000" font-family="Courier New" font-size="13" font-weight="bold" lengthAdjust="spacing" textLength="18" x="557" y="942.3481">17</text><text fill="#000000" font-family="Courier New" font-size="13" lengthAdjust="spacing" textLength="308" x="579" y="942.3481">Compare "ENG_DIGEST" with "CHANGE_DIGEST"</text><polygon fill="#181818" points="103,1000.6797,93,1004.6797,103,1008.6797,99,1004.6797" style="stroke:#181818;stroke-width:1.0;"/><line style="stroke:#181818;stroke-width:1.0;stroke-dasharray:2.0,2.0;" x1="97" x2="539" y1="1004.6797" y2="1004.6797"/><text fill="#000000" font-family="Courier New" font-size="13" font-weight="bold" lengthAdjust="spacing" textLength="18" x="109" y="992.0474">18</text><text fill="#000000" font-family="Courier New" font-size="13" lengthAdjust="spacing" textLength="138" x="131" y="984.481">[&lt;0 OK | 52 EBADE&gt;]</text><text fill="#000000" font-family="Courier New" font-size="13" lengthAdjust="spacing" textLength="142" x="131" y="999.6138">Send checksum result</text><polygon fill="#181818" points="103,1103.75,93,1107.75,103,1111.75,99,1107.75" style="stroke:#181818;stroke-width:1.0;"/><line style="stroke:#181818;stroke-width:1.0;stroke-dasharray:2.0,2.0;" x1="97" x2="539" y1="1107.75" y2="1107.75"/><text fill="#000000" font-family="Courier New" font-size="13" font-weight="bold" lengthAdjust="spacing" textLength="18" x="109" y="1095.1177">19</text><text fill="#000000" font-family="Courier New" font-size="13" lengthAdjust="spacing" textLength="231" x="131" y="1087.5513">[&lt;ERROR_CODE&gt; &lt;ERROR_NAME&gt;]</text><text fill="#000000" font-family="Courier New" font-size="13" lengthAdjust="spacing" textLength="211" x="131" y="1102.6841">Standard C error code and name</text><polygon fill="#181818" points="103,1146.8828,93,1150.8828,103,1154.8828,99,1150.8828" style="stroke:#181818;stroke-width:1.0;"/><line style="stroke:#181818;stroke-width:1.0;stroke-dasharray:2.0,2.0;" x1="97" x2="539" y1="1150.8828" y2="1150.8828"/><text fill="#000000" font-family="Courier New" font-size="13" font-weight="bold" lengthAdjust="spacing" textLength="18" x="109" y="1145.8169">20</text><text fill="#000000" font-family="Courier New" font-size="13" lengthAdjust="spacing" textLength="109" x="131" y="1145.8169">Close connection</text><!--SRC=[dLNRQjj047tNLqprajOqu8IMGWW6HrOS9xKT50SAJGWRQM8laNRTtL4kfH_VMScwE5Y1zaNQrSoSCtTzM1knp0GGwjz09aVFFagr5aPaa6cbuvNH6RwL9FWWyfHEjQAPO76WSoFHm0oVFOyafGYZ7vVyMIcCIMhbPKAg1-DqUpsRz7fEtX9xZ4iobckX2FoZ2FaeKP4Fma9zUwDrXIf1KwYKnpVoKvcYVRM4MQ7JN3rFvAHLdjspZLV3m_vW0tG4Fo-_NmSNu1zV3XTd0__M4-peao2igBpoxMmQu2C8LXW_rcQmHfD9Qpb4so2q76cEiDzYtscVu2u4Rmz4Id3WkUUs7H4c3MkJnSfp9gm_SiHzc5_Sg7DzlpyPEHVEvoTtan77VgCY5CahF6W3-1AlX5gYuqsrNZDnyLfCfk7yUW43w7SbT5BaiuKwHWA5B_pG2HReZTZXtniKZqnGlcUrPgBHyedO6Ma9Fahr95APWC5VELhwr1NWjoyGdWn7qwlnRHkUbRkg6PM8Z2oInjL_gMI4b1jLkOP92T1HoiQ9odoOF0aLOvtUPqahM1la0PIAqJXm7imTTd6SPtdg24ArXDXrfSsp7PeZ9DSh2blnRNhgiEYf9kz5kcrNTW_w1p2THo4NrccK9e8FX6aAFgtG84WBWY15mKdLp9bf_kWq_UskQG6tGWbSwpN1r6vYQX5cka5xnya-ZEQpRITZNcCijfzl57l9jR9hpJ9BWd8BbGbOkLGYjQrGL9loVoBec9JXrgJSgD5a75ujU2Q3i-5iV5TU_Tl2eeJ4zqeSw8mN8u8VDiPb9vM0OVMnAsl7RZN07_XwM0nGEAZILv6wdF7_e5KHDrFrXjZSoZrL5AjUL6wCcsNLnHz6qJow2-PC3PlBR3Wj_I3kCM4u3u36y0w9gxvJ_BVnzZQaxHdVHWzIROiUgFv5hU4iBVu2]--></g></svg>